solid OpenSCAD_Model
  facet normal 0 0 -1
    outer loop
      vertex 0 0 0
      vertex 72 8 0
      vertex 72 0 0
    endloop
  endfacet
  facet normal -0 0 -1
    outer loop
      vertex 72 8 0
      vertex 0 0 0
      vertex 0 8 0
    endloop
  endfacet
  facet normal 1 0 0
    outer loop
      vertex 72 0 67
      vertex 72 8 97
      vertex 72 6 97
    endloop
  endfacet
  facet normal 1 0 0
    outer loop
      vertex 72 8 97
      vertex 72 0 67
      vertex 72 8 0
    endloop
  endfacet
  facet normal 1 0 0
    outer loop
      vertex 72 8 0
      vertex 72 0 67
      vertex 72 0 0
    endloop
  endfacet
  facet normal 0 -1 0
    outer loop
      vertex 0 0 0
      vertex 2 0 67
      vertex 0 0 67
    endloop
  endfacet
  facet normal 0 -1 -0
    outer loop
      vertex 2 0 67
      vertex 0 0 0
      vertex 70 0 67
    endloop
  endfacet
  facet normal 0 -1 0
    outer loop
      vertex 72 0 0
      vertex 70 0 67
      vertex 0 0 0
    endloop
  endfacet
  facet normal 0 -1 0
    outer loop
      vertex 70 0 67
      vertex 72 0 0
      vertex 72 0 67
    endloop
  endfacet
  facet normal 0 0 1
    outer loop
      vertex 72 8 97
      vertex 70 6 97
      vertex 72 6 97
    endloop
  endfacet
  facet normal 0 0 1
    outer loop
      vertex 72 8 97
      vertex 2 6 97
      vertex 70 6 97
    endloop
  endfacet
  facet normal -0 0 1
    outer loop
      vertex 0 8 97
      vertex 2 6 97
      vertex 72 8 97
    endloop
  endfacet
  facet normal 0 0 1
    outer loop
      vertex 2 6 97
      vertex 0 8 97
      vertex 0 6 97
    endloop
  endfacet
  facet normal -1 0 0
    outer loop
      vertex 0 0 67
      vertex 0 8 97
      vertex 0 8 0
    endloop
  endfacet
  facet normal -1 0 0
    outer loop
      vertex 0 0 67
      vertex 0 8 0
      vertex 0 0 0
    endloop
  endfacet
  facet normal -1 -0 0
    outer loop
      vertex 0 8 97
      vertex 0 0 67
      vertex 0 6 97
    endloop
  endfacet
  facet normal 0 1 -0
    outer loop
      vertex 72 8 0
      vertex 0 8 97
      vertex 72 8 97
    endloop
  endfacet
  facet normal 0 1 0
    outer loop
      vertex 0 8 97
      vertex 72 8 0
      vertex 0 8 0
    endloop
  endfacet
  facet normal -0 0 1
    outer loop
      vertex 2 6 1
      vertex 70 2 1
      vertex 70 6 1
    endloop
  endfacet
  facet normal 0 0 1
    outer loop
      vertex 70 2 1
      vertex 2 6 1
      vertex 2 2 1
    endloop
  endfacet
  facet normal 1 0 0
    outer loop
      vertex 2 6 97
      vertex 2 2 67
      vertex 2 6 1
    endloop
  endfacet
  facet normal 1 0 -0
    outer loop
      vertex 2 2 67
      vertex 2 6 97
      vertex 2 0 67
    endloop
  endfacet
  facet normal 1 0 0
    outer loop
      vertex 2 6 1
      vertex 2 2 67
      vertex 2 2 1
    endloop
  endfacet
  facet normal 0 -1 0
    outer loop
      vertex 2 6 1
      vertex 70 6 97
      vertex 2 6 97
    endloop
  endfacet
  facet normal 0 -1 -0
    outer loop
      vertex 70 6 97
      vertex 2 6 1
      vertex 70 6 1
    endloop
  endfacet
  facet normal -1 0 0
    outer loop
      vertex 70 2 67
      vertex 70 6 1
      vertex 70 2 1
    endloop
  endfacet
  facet normal -1 0 0
    outer loop
      vertex 70 6 1
      vertex 70 2 67
      vertex 70 6 97
    endloop
  endfacet
  facet normal -1 0 0
    outer loop
      vertex 70 6 97
      vertex 70 2 67
      vertex 70 0 67
    endloop
  endfacet
  facet normal 0 1 -0
    outer loop
      vertex 70 2 1
      vertex 2 2 67
      vertex 70 2 67
    endloop
  endfacet
  facet normal 0 1 0
    outer loop
      vertex 2 2 67
      vertex 70 2 1
      vertex 2 2 1
    endloop
  endfacet
  facet normal -0 0 1
    outer loop
      vertex 2 2 67
      vertex 70 0 67
      vertex 70 2 67
    endloop
  endfacet
  facet normal 0 0 1
    outer loop
      vertex 70 0 67
      vertex 2 2 67
      vertex 2 0 67
    endloop
  endfacet
  facet normal 0 -0.980581 0.196116
    outer loop
      vertex 0 0 67
      vertex 2 6 97
      vertex 0 6 97
    endloop
  endfacet
  facet normal 0 -0.980581 0.196116
    outer loop
      vertex 2 6 97
      vertex 0 0 67
      vertex 2 0 67
    endloop
  endfacet
  facet normal 0 -0.980581 0.196116
    outer loop
      vertex 70 0 67
      vertex 72 6 97
      vertex 70 6 97
    endloop
  endfacet
  facet normal 0 -0.980581 0.196116
    outer loop
      vertex 72 6 97
      vertex 70 0 67
      vertex 72 0 67
    endloop
  endfacet
endsolid OpenSCAD_Model
