solid OpenSCAD_Model
  facet normal 0 0 -1
    outer loop
      vertex 63 0 0
      vertex 42.5 16 0
      vertex 63 32 0
    endloop
  endfacet
  facet normal 0 0 -1
    outer loop
      vertex 63 0 0
      vertex 37 6.47372 0
      vertex 42.5 16 0
    endloop
  endfacet
  facet normal 0 0 -1
    outer loop
      vertex 63 0 0
      vertex 26 6.47372 0
      vertex 37 6.47372 0
    endloop
  endfacet
  facet normal -0 0 -1
    outer loop
      vertex 26 6.47372 0
      vertex 0 0 0
      vertex 20.5 16 0
    endloop
  endfacet
  facet normal 0 0 -1
    outer loop
      vertex 0 0 0
      vertex 26 6.47372 0
      vertex 63 0 0
    endloop
  endfacet
  facet normal 0 0 -1
    outer loop
      vertex 37 25.5263 0
      vertex 63 32 0
      vertex 42.5 16 0
    endloop
  endfacet
  facet normal 0 0 -1
    outer loop
      vertex 26 25.5263 0
      vertex 63 32 0
      vertex 37 25.5263 0
    endloop
  endfacet
  facet normal 0 0 -1
    outer loop
      vertex 0 32 0
      vertex 20.5 16 0
      vertex 0 0 0
    endloop
  endfacet
  facet normal 0 0 -1
    outer loop
      vertex 26 25.5263 0
      vertex 0 32 0
      vertex 63 32 0
    endloop
  endfacet
  facet normal 0 0 -1
    outer loop
      vertex 20.5 16 0
      vertex 0 32 0
      vertex 26 25.5263 0
    endloop
  endfacet
  facet normal 1 -0 0
    outer loop
      vertex 63 0 40
      vertex 63 32 0
      vertex 63 32 40
    endloop
  endfacet
  facet normal 1 0 0
    outer loop
      vertex 63 32 0
      vertex 63 0 40
      vertex 63 0 0
    endloop
  endfacet
  facet normal 0 -1 0
    outer loop
      vertex 0 0 0
      vertex 63 0 40
      vertex 0 0 40
    endloop
  endfacet
  facet normal 0 -1 -0
    outer loop
      vertex 63 0 40
      vertex 0 0 0
      vertex 63 0 0
    endloop
  endfacet
  facet normal 0 0 1
    outer loop
      vertex 63 32 40
      vertex 61 30 40
      vertex 63 0 40
    endloop
  endfacet
  facet normal 0 0 1
    outer loop
      vertex 63 32 40
      vertex 2 30 40
      vertex 61 30 40
    endloop
  endfacet
  facet normal 0 0 1
    outer loop
      vertex 2 30 40
      vertex 0 32 40
      vertex 2 2 40
    endloop
  endfacet
  facet normal -0 0 1
    outer loop
      vertex 0 32 40
      vertex 2 30 40
      vertex 63 32 40
    endloop
  endfacet
  facet normal -0 0 1
    outer loop
      vertex 61 2 40
      vertex 63 0 40
      vertex 61 30 40
    endloop
  endfacet
  facet normal -0 0 1
    outer loop
      vertex 2 2 40
      vertex 63 0 40
      vertex 61 2 40
    endloop
  endfacet
  facet normal 0 0 1
    outer loop
      vertex 2 2 40
      vertex 0 0 40
      vertex 63 0 40
    endloop
  endfacet
  facet normal 0 0 1
    outer loop
      vertex 0 0 40
      vertex 2 2 40
      vertex 0 32 40
    endloop
  endfacet
  facet normal -1 0 0
    outer loop
      vertex 0 0 0
      vertex 0 32 40
      vertex 0 32 0
    endloop
  endfacet
  facet normal -1 -0 0
    outer loop
      vertex 0 32 40
      vertex 0 0 0
      vertex 0 0 40
    endloop
  endfacet
  facet normal 0 1 -0
    outer loop
      vertex 63 32 0
      vertex 0 32 40
      vertex 63 32 40
    endloop
  endfacet
  facet normal 0 1 0
    outer loop
      vertex 0 32 40
      vertex 63 32 0
      vertex 0 32 0
    endloop
  endfacet
  facet normal 0 0 1
    outer loop
      vertex 61 30 1
      vertex 44.8094 16 1
      vertex 61 2 1
    endloop
  endfacet
  facet normal 0 0 1
    outer loop
      vertex 61 30 1
      vertex 38.1547 27.5263 1
      vertex 44.8094 16 1
    endloop
  endfacet
  facet normal 0 0 1
    outer loop
      vertex 61 30 1
      vertex 24.8453 27.5263 1
      vertex 38.1547 27.5263 1
    endloop
  endfacet
  facet normal 0 0 1
    outer loop
      vertex 24.8453 27.5263 1
      vertex 2 30 1
      vertex 18.1906 16 1
    endloop
  endfacet
  facet normal -0 0 1
    outer loop
      vertex 2 30 1
      vertex 24.8453 27.5263 1
      vertex 61 30 1
    endloop
  endfacet
  facet normal -0 0 1
    outer loop
      vertex 38.1547 4.47372 1
      vertex 61 2 1
      vertex 44.8094 16 1
    endloop
  endfacet
  facet normal -0 0 1
    outer loop
      vertex 24.8453 4.47372 1
      vertex 61 2 1
      vertex 38.1547 4.47372 1
    endloop
  endfacet
  facet normal 0 0 1
    outer loop
      vertex 2 2 1
      vertex 18.1906 16 1
      vertex 2 30 1
    endloop
  endfacet
  facet normal 0 0 1
    outer loop
      vertex 24.8453 4.47372 1
      vertex 2 2 1
      vertex 61 2 1
    endloop
  endfacet
  facet normal 0 0 1
    outer loop
      vertex 18.1906 16 1
      vertex 2 2 1
      vertex 24.8453 4.47372 1
    endloop
  endfacet
  facet normal 1 -0 0
    outer loop
      vertex 2 2 40
      vertex 2 30 1
      vertex 2 30 40
    endloop
  endfacet
  facet normal 1 0 0
    outer loop
      vertex 2 30 1
      vertex 2 2 40
      vertex 2 2 1
    endloop
  endfacet
  facet normal 0 -1 0
    outer loop
      vertex 2 30 1
      vertex 61 30 40
      vertex 2 30 40
    endloop
  endfacet
  facet normal 0 -1 -0
    outer loop
      vertex 61 30 40
      vertex 2 30 1
      vertex 61 30 1
    endloop
  endfacet
  facet normal -1 0 0
    outer loop
      vertex 61 2 1
      vertex 61 30 40
      vertex 61 30 1
    endloop
  endfacet
  facet normal -1 -0 0
    outer loop
      vertex 61 30 40
      vertex 61 2 1
      vertex 61 2 40
    endloop
  endfacet
  facet normal 0 1 -0
    outer loop
      vertex 61 2 1
      vertex 2 2 40
      vertex 61 2 40
    endloop
  endfacet
  facet normal 0 1 0
    outer loop
      vertex 2 2 40
      vertex 61 2 1
      vertex 2 2 1
    endloop
  endfacet
  facet normal -0.866026 0.499999 0
    outer loop
      vertex 18.1906 16 1
      vertex 24.8453 27.5263 8
      vertex 24.8453 27.5263 1
    endloop
  endfacet
  facet normal -0.866026 0.499999 0
    outer loop
      vertex 24.8453 27.5263 8
      vertex 18.1906 16 1
      vertex 18.1906 16 8
    endloop
  endfacet
  facet normal 0.866025 -0.5 0
    outer loop
      vertex 38.1547 4.47372 8
      vertex 44.8094 16 1
      vertex 44.8094 16 8
    endloop
  endfacet
  facet normal 0.866025 -0.5 0
    outer loop
      vertex 44.8094 16 1
      vertex 38.1547 4.47372 8
      vertex 38.1547 4.47372 1
    endloop
  endfacet
  facet normal 0 0 1
    outer loop
      vertex 38.1547 27.5263 8
      vertex 38.1547 4.47372 8
      vertex 44.8094 16 8
    endloop
  endfacet
  facet normal -0 0 1
    outer loop
      vertex 24.8453 27.5263 8
      vertex 38.1547 4.47372 8
      vertex 38.1547 27.5263 8
    endloop
  endfacet
  facet normal 0 0 1
    outer loop
      vertex 24.8453 27.5263 8
      vertex 24.8453 4.47372 8
      vertex 38.1547 4.47372 8
    endloop
  endfacet
  facet normal 0 -0 1
    outer loop
      vertex 24.8453 4.47372 8
      vertex 24.8453 27.5263 8
      vertex 18.1906 16 8
    endloop
  endfacet
  facet normal -0.866025 -0.5 0
    outer loop
      vertex 24.8453 4.47372 1
      vertex 18.1906 16 8
      vertex 18.1906 16 1
    endloop
  endfacet
  facet normal -0.866025 -0.5 0
    outer loop
      vertex 18.1906 16 8
      vertex 24.8453 4.47372 1
      vertex 24.8453 4.47372 8
    endloop
  endfacet
  facet normal 0 1 -0
    outer loop
      vertex 38.1547 27.5263 1
      vertex 24.8453 27.5263 8
      vertex 38.1547 27.5263 8
    endloop
  endfacet
  facet normal 0 1 0
    outer loop
      vertex 24.8453 27.5263 8
      vertex 38.1547 27.5263 1
      vertex 24.8453 27.5263 1
    endloop
  endfacet
  facet normal 0 -1 0
    outer loop
      vertex 24.8453 4.47372 1
      vertex 38.1547 4.47372 8
      vertex 24.8453 4.47372 8
    endloop
  endfacet
  facet normal 0 -1 -0
    outer loop
      vertex 38.1547 4.47372 8
      vertex 24.8453 4.47372 1
      vertex 38.1547 4.47372 1
    endloop
  endfacet
  facet normal 0.866026 0.499999 0
    outer loop
      vertex 44.8094 16 8
      vertex 38.1547 27.5263 1
      vertex 38.1547 27.5263 8
    endloop
  endfacet
  facet normal 0.866026 0.499999 0
    outer loop
      vertex 38.1547 27.5263 1
      vertex 44.8094 16 8
      vertex 44.8094 16 1
    endloop
  endfacet
  facet normal 0.866026 -0.499999 0
    outer loop
      vertex 20.5 16 7
      vertex 26 25.5263 0
      vertex 26 25.5263 7
    endloop
  endfacet
  facet normal 0.866026 -0.499999 0
    outer loop
      vertex 26 25.5263 0
      vertex 20.5 16 7
      vertex 20.5 16 0
    endloop
  endfacet
  facet normal -0.866025 0.5 0
    outer loop
      vertex 37 6.47372 0
      vertex 42.5 16 7
      vertex 42.5 16 0
    endloop
  endfacet
  facet normal -0.866025 0.5 0
    outer loop
      vertex 42.5 16 7
      vertex 37 6.47372 0
      vertex 37 6.47372 7
    endloop
  endfacet
  facet normal 0 0 -1
    outer loop
      vertex 37 6.47372 7
      vertex 37 25.5263 7
      vertex 42.5 16 7
    endloop
  endfacet
  facet normal 0 0 -1
    outer loop
      vertex 26 6.47372 7
      vertex 37 25.5263 7
      vertex 37 6.47372 7
    endloop
  endfacet
  facet normal 0 0 -1
    outer loop
      vertex 26 6.47372 7
      vertex 26 25.5263 7
      vertex 37 25.5263 7
    endloop
  endfacet
  facet normal 0 -0 -1
    outer loop
      vertex 26 25.5263 7
      vertex 26 6.47372 7
      vertex 20.5 16 7
    endloop
  endfacet
  facet normal 0 -1 0
    outer loop
      vertex 26 25.5263 0
      vertex 37 25.5263 7
      vertex 26 25.5263 7
    endloop
  endfacet
  facet normal 0 -1 -0
    outer loop
      vertex 37 25.5263 7
      vertex 26 25.5263 0
      vertex 37 25.5263 0
    endloop
  endfacet
  facet normal 0.866025 0.5 0
    outer loop
      vertex 26 6.47372 7
      vertex 20.5 16 0
      vertex 20.5 16 7
    endloop
  endfacet
  facet normal 0.866025 0.5 0
    outer loop
      vertex 20.5 16 0
      vertex 26 6.47372 7
      vertex 26 6.47372 0
    endloop
  endfacet
  facet normal 0 1 -0
    outer loop
      vertex 37 6.47372 0
      vertex 26 6.47372 7
      vertex 37 6.47372 7
    endloop
  endfacet
  facet normal 0 1 0
    outer loop
      vertex 26 6.47372 7
      vertex 37 6.47372 0
      vertex 26 6.47372 0
    endloop
  endfacet
  facet normal -0.866026 -0.499999 0
    outer loop
      vertex 42.5 16 0
      vertex 37 25.5263 7
      vertex 37 25.5263 0
    endloop
  endfacet
  facet normal -0.866026 -0.499999 0
    outer loop
      vertex 37 25.5263 7
      vertex 42.5 16 0
      vertex 42.5 16 7
    endloop
  endfacet
endsolid OpenSCAD_Model
