solid OpenSCAD_Model
  facet normal 0 0 -1
    outer loop
      vertex 0 0 0
      vertex 113 66 0
      vertex 113 0 0
    endloop
  endfacet
  facet normal -0 0 -1
    outer loop
      vertex 113 66 0
      vertex 0 0 0
      vertex 0 66 0
    endloop
  endfacet
  facet normal 1 -0 0
    outer loop
      vertex 39 2 49
      vertex 39 64 1
      vertex 39 64 49
    endloop
  endfacet
  facet normal 1 0 0
    outer loop
      vertex 39 64 1
      vertex 39 2 49
      vertex 39 2 1
    endloop
  endfacet
  facet normal 0 -1 0
    outer loop
      vertex 0 0 43
      vertex 0 0 0
      vertex 10 0 43
    endloop
  endfacet
  facet normal 0 -1 0
    outer loop
      vertex 10 0 43
      vertex 113 0 49
      vertex 10 0 49
    endloop
  endfacet
  facet normal 0 -1 0
    outer loop
      vertex 113 0 0
      vertex 10 0 43
      vertex 0 0 0
    endloop
  endfacet
  facet normal 0 -1 0
    outer loop
      vertex 10 0 43
      vertex 113 0 0
      vertex 113 0 49
    endloop
  endfacet
  facet normal 0 0 1
    outer loop
      vertex 113 66 49
      vertex 111 64 49
      vertex 113 0 49
    endloop
  endfacet
  facet normal 0 0 1
    outer loop
      vertex 113 66 49
      vertex 76 64 49
      vertex 111 64 49
    endloop
  endfacet
  facet normal 0 0 1
    outer loop
      vertex 76 64 49
      vertex 74 64 49
      vertex 76 2 49
    endloop
  endfacet
  facet normal 0 0 1
    outer loop
      vertex 113 66 49
      vertex 74 64 49
      vertex 76 64 49
    endloop
  endfacet
  facet normal -0 0 1
    outer loop
      vertex 10 66 49
      vertex 74 64 49
      vertex 113 66 49
    endloop
  endfacet
  facet normal 0 0 1
    outer loop
      vertex 39 64 49
      vertex 37 64 49
      vertex 39 2 49
    endloop
  endfacet
  facet normal 0 0 1
    outer loop
      vertex 74 64 49
      vertex 10 66 49
      vertex 39 64 49
    endloop
  endfacet
  facet normal 0 0 1
    outer loop
      vertex 39 64 49
      vertex 10 66 49
      vertex 37 64 49
    endloop
  endfacet
  facet normal 0 0 1
    outer loop
      vertex 37 64 49
      vertex 10 66 49
      vertex 10 64 49
    endloop
  endfacet
  facet normal -0 0 1
    outer loop
      vertex 111 2 49
      vertex 113 0 49
      vertex 111 64 49
    endloop
  endfacet
  facet normal -0 0 1
    outer loop
      vertex 76 2 49
      vertex 113 0 49
      vertex 111 2 49
    endloop
  endfacet
  facet normal 0 0 1
    outer loop
      vertex 74 2 49
      vertex 76 2 49
      vertex 74 64 49
    endloop
  endfacet
  facet normal -0 0 1
    outer loop
      vertex 74 2 49
      vertex 113 0 49
      vertex 76 2 49
    endloop
  endfacet
  facet normal 0 0 1
    outer loop
      vertex 10 0 49
      vertex 74 2 49
      vertex 39 2 49
    endloop
  endfacet
  facet normal 0 0 1
    outer loop
      vertex 37 2 49
      vertex 39 2 49
      vertex 37 64 49
    endloop
  endfacet
  facet normal 0 0 1
    outer loop
      vertex 10 0 49
      vertex 39 2 49
      vertex 37 2 49
    endloop
  endfacet
  facet normal 0 0 1
    outer loop
      vertex 10 0 49
      vertex 37 2 49
      vertex 10 2 49
    endloop
  endfacet
  facet normal 0 0 1
    outer loop
      vertex 74 2 49
      vertex 10 0 49
      vertex 113 0 49
    endloop
  endfacet
  facet normal -1 0 0
    outer loop
      vertex 0 0 0
      vertex 0 66 43
      vertex 0 66 0
    endloop
  endfacet
  facet normal -1 -0 0
    outer loop
      vertex 0 66 43
      vertex 0 0 0
      vertex 0 0 43
    endloop
  endfacet
  facet normal 0 1 0
    outer loop
      vertex 113 66 49
      vertex 10 66 43
      vertex 10 66 49
    endloop
  endfacet
  facet normal 0 1 -0
    outer loop
      vertex 113 66 0
      vertex 10 66 43
      vertex 113 66 49
    endloop
  endfacet
  facet normal 0 1 0
    outer loop
      vertex 0 66 0
      vertex 10 66 43
      vertex 113 66 0
    endloop
  endfacet
  facet normal 0 1 0
    outer loop
      vertex 10 66 43
      vertex 0 66 0
      vertex 0 66 43
    endloop
  endfacet
  facet normal -0 0 1
    outer loop
      vertex 2 64 1
      vertex 37 2 1
      vertex 37 64 1
    endloop
  endfacet
  facet normal 0 0 1
    outer loop
      vertex 37 2 1
      vertex 2 64 1
      vertex 2 2 1
    endloop
  endfacet
  facet normal 1 -0 0
    outer loop
      vertex 2 2 43
      vertex 2 64 1
      vertex 2 64 43
    endloop
  endfacet
  facet normal 1 0 0
    outer loop
      vertex 2 64 1
      vertex 2 2 43
      vertex 2 2 1
    endloop
  endfacet
  facet normal 0 -1 0
    outer loop
      vertex 2 64 43
      vertex 2 64 1
      vertex 10 64 43
    endloop
  endfacet
  facet normal 0 -1 0
    outer loop
      vertex 10 64 43
      vertex 37 64 49
      vertex 10 64 49
    endloop
  endfacet
  facet normal 0 -1 0
    outer loop
      vertex 37 64 1
      vertex 10 64 43
      vertex 2 64 1
    endloop
  endfacet
  facet normal 0 -1 0
    outer loop
      vertex 10 64 43
      vertex 37 64 1
      vertex 37 64 49
    endloop
  endfacet
  facet normal -1 0 0
    outer loop
      vertex 37 2 1
      vertex 37 64 49
      vertex 37 64 1
    endloop
  endfacet
  facet normal -1 -0 0
    outer loop
      vertex 37 64 49
      vertex 37 2 1
      vertex 37 2 49
    endloop
  endfacet
  facet normal 0 1 0
    outer loop
      vertex 37 2 49
      vertex 10 2 43
      vertex 10 2 49
    endloop
  endfacet
  facet normal 0 1 -0
    outer loop
      vertex 37 2 1
      vertex 10 2 43
      vertex 37 2 49
    endloop
  endfacet
  facet normal 0 1 0
    outer loop
      vertex 2 2 1
      vertex 10 2 43
      vertex 37 2 1
    endloop
  endfacet
  facet normal 0 1 0
    outer loop
      vertex 10 2 43
      vertex 2 2 1
      vertex 2 2 43
    endloop
  endfacet
  facet normal 1 -0 0
    outer loop
      vertex 76 2 49
      vertex 76 64 1
      vertex 76 64 49
    endloop
  endfacet
  facet normal 1 0 0
    outer loop
      vertex 76 64 1
      vertex 76 2 49
      vertex 76 2 1
    endloop
  endfacet
  facet normal -0 0 1
    outer loop
      vertex 39 64 1
      vertex 74 2 1
      vertex 74 64 1
    endloop
  endfacet
  facet normal 0 0 1
    outer loop
      vertex 74 2 1
      vertex 39 64 1
      vertex 39 2 1
    endloop
  endfacet
  facet normal 0 -1 0
    outer loop
      vertex 39 64 1
      vertex 74 64 49
      vertex 39 64 49
    endloop
  endfacet
  facet normal 0 -1 -0
    outer loop
      vertex 74 64 49
      vertex 39 64 1
      vertex 74 64 1
    endloop
  endfacet
  facet normal -1 0 0
    outer loop
      vertex 74 2 1
      vertex 74 64 49
      vertex 74 64 1
    endloop
  endfacet
  facet normal -1 -0 0
    outer loop
      vertex 74 64 49
      vertex 74 2 1
      vertex 74 2 49
    endloop
  endfacet
  facet normal 0 1 -0
    outer loop
      vertex 74 2 1
      vertex 39 2 49
      vertex 74 2 49
    endloop
  endfacet
  facet normal 0 1 0
    outer loop
      vertex 39 2 49
      vertex 74 2 1
      vertex 39 2 1
    endloop
  endfacet
  facet normal 1 -0 0
    outer loop
      vertex 113 0 49
      vertex 113 66 0
      vertex 113 66 49
    endloop
  endfacet
  facet normal 1 0 0
    outer loop
      vertex 113 66 0
      vertex 113 0 49
      vertex 113 0 0
    endloop
  endfacet
  facet normal -0 0 1
    outer loop
      vertex 76 64 1
      vertex 111 2 1
      vertex 111 64 1
    endloop
  endfacet
  facet normal 0 0 1
    outer loop
      vertex 111 2 1
      vertex 76 64 1
      vertex 76 2 1
    endloop
  endfacet
  facet normal 0 -1 0
    outer loop
      vertex 76 64 1
      vertex 111 64 49
      vertex 76 64 49
    endloop
  endfacet
  facet normal 0 -1 -0
    outer loop
      vertex 111 64 49
      vertex 76 64 1
      vertex 111 64 1
    endloop
  endfacet
  facet normal -1 0 0
    outer loop
      vertex 111 2 1
      vertex 111 64 49
      vertex 111 64 1
    endloop
  endfacet
  facet normal -1 -0 0
    outer loop
      vertex 111 64 49
      vertex 111 2 1
      vertex 111 2 49
    endloop
  endfacet
  facet normal 0 1 -0
    outer loop
      vertex 111 2 1
      vertex 76 2 49
      vertex 111 2 49
    endloop
  endfacet
  facet normal 0 1 0
    outer loop
      vertex 76 2 49
      vertex 111 2 1
      vertex 76 2 1
    endloop
  endfacet
  facet normal 0 0 1
    outer loop
      vertex 10 66 43
      vertex 2 64 43
      vertex 10 64 43
    endloop
  endfacet
  facet normal 0 0 1
    outer loop
      vertex 2 64 43
      vertex 0 66 43
      vertex 2 2 43
    endloop
  endfacet
  facet normal -0 0 1
    outer loop
      vertex 0 66 43
      vertex 2 64 43
      vertex 10 66 43
    endloop
  endfacet
  facet normal -0 0 1
    outer loop
      vertex 2 2 43
      vertex 10 0 43
      vertex 10 2 43
    endloop
  endfacet
  facet normal 0 0 1
    outer loop
      vertex 2 2 43
      vertex 0 0 43
      vertex 10 0 43
    endloop
  endfacet
  facet normal 0 0 1
    outer loop
      vertex 0 0 43
      vertex 2 2 43
      vertex 0 66 43
    endloop
  endfacet
  facet normal -1 0 0
    outer loop
      vertex 10 64 43
      vertex 10 66 49
      vertex 10 66 43
    endloop
  endfacet
  facet normal -1 -0 0
    outer loop
      vertex 10 66 49
      vertex 10 64 43
      vertex 10 64 49
    endloop
  endfacet
  facet normal -1 0 0
    outer loop
      vertex 10 0 43
      vertex 10 2 49
      vertex 10 2 43
    endloop
  endfacet
  facet normal -1 -0 0
    outer loop
      vertex 10 2 49
      vertex 10 0 43
      vertex 10 0 49
    endloop
  endfacet
endsolid OpenSCAD_Model
