solid OpenSCAD_Model
  facet normal 0 0 -1
    outer loop
      vertex 0 0 0
      vertex 72 11 0
      vertex 72 0 0
    endloop
  endfacet
  facet normal -0 0 -1
    outer loop
      vertex 72 11 0
      vertex 0 0 0
      vertex 0 11 0
    endloop
  endfacet
  facet normal 1 0 0
    outer loop
      vertex 72 0 67
      vertex 72 11 97
      vertex 72 9 97
    endloop
  endfacet
  facet normal 1 0 0
    outer loop
      vertex 72 11 97
      vertex 72 0 67
      vertex 72 11 0
    endloop
  endfacet
  facet normal 1 0 0
    outer loop
      vertex 72 11 0
      vertex 72 0 67
      vertex 72 0 0
    endloop
  endfacet
  facet normal 0 -1 0
    outer loop
      vertex 0 0 0
      vertex 2 0 67
      vertex 0 0 67
    endloop
  endfacet
  facet normal 0 -1 -0
    outer loop
      vertex 2 0 67
      vertex 0 0 0
      vertex 70 0 67
    endloop
  endfacet
  facet normal 0 -1 0
    outer loop
      vertex 72 0 0
      vertex 70 0 67
      vertex 0 0 0
    endloop
  endfacet
  facet normal 0 -1 0
    outer loop
      vertex 70 0 67
      vertex 72 0 0
      vertex 72 0 67
    endloop
  endfacet
  facet normal 0 0 1
    outer loop
      vertex 72 11 97
      vertex 70 9 97
      vertex 72 9 97
    endloop
  endfacet
  facet normal 0 0 1
    outer loop
      vertex 72 11 97
      vertex 2 9 97
      vertex 70 9 97
    endloop
  endfacet
  facet normal -0 0 1
    outer loop
      vertex 0 11 97
      vertex 2 9 97
      vertex 72 11 97
    endloop
  endfacet
  facet normal 0 0 1
    outer loop
      vertex 2 9 97
      vertex 0 11 97
      vertex 0 9 97
    endloop
  endfacet
  facet normal -1 0 0
    outer loop
      vertex 0 0 67
      vertex 0 11 97
      vertex 0 11 0
    endloop
  endfacet
  facet normal -1 0 0
    outer loop
      vertex 0 0 67
      vertex 0 11 0
      vertex 0 0 0
    endloop
  endfacet
  facet normal -1 -0 0
    outer loop
      vertex 0 11 97
      vertex 0 0 67
      vertex 0 9 97
    endloop
  endfacet
  facet normal 0 1 -0
    outer loop
      vertex 72 11 0
      vertex 0 11 97
      vertex 72 11 97
    endloop
  endfacet
  facet normal 0 1 0
    outer loop
      vertex 0 11 97
      vertex 72 11 0
      vertex 0 11 0
    endloop
  endfacet
  facet normal -0 0 1
    outer loop
      vertex 2 9 1
      vertex 70 2 1
      vertex 70 9 1
    endloop
  endfacet
  facet normal 0 0 1
    outer loop
      vertex 70 2 1
      vertex 2 9 1
      vertex 2 2 1
    endloop
  endfacet
  facet normal 1 0 0
    outer loop
      vertex 2 9 97
      vertex 2 2 67
      vertex 2 9 1
    endloop
  endfacet
  facet normal 1 0 -0
    outer loop
      vertex 2 2 67
      vertex 2 9 97
      vertex 2 0 67
    endloop
  endfacet
  facet normal 1 0 0
    outer loop
      vertex 2 9 1
      vertex 2 2 67
      vertex 2 2 1
    endloop
  endfacet
  facet normal 0 -1 0
    outer loop
      vertex 2 9 1
      vertex 70 9 97
      vertex 2 9 97
    endloop
  endfacet
  facet normal 0 -1 -0
    outer loop
      vertex 70 9 97
      vertex 2 9 1
      vertex 70 9 1
    endloop
  endfacet
  facet normal -1 0 0
    outer loop
      vertex 70 2 67
      vertex 70 9 1
      vertex 70 2 1
    endloop
  endfacet
  facet normal -1 0 0
    outer loop
      vertex 70 9 1
      vertex 70 2 67
      vertex 70 9 97
    endloop
  endfacet
  facet normal -1 0 0
    outer loop
      vertex 70 9 97
      vertex 70 2 67
      vertex 70 0 67
    endloop
  endfacet
  facet normal 0 1 -0
    outer loop
      vertex 70 2 1
      vertex 2 2 67
      vertex 70 2 67
    endloop
  endfacet
  facet normal 0 1 0
    outer loop
      vertex 2 2 67
      vertex 70 2 1
      vertex 2 2 1
    endloop
  endfacet
  facet normal -0 0 1
    outer loop
      vertex 2 2 67
      vertex 70 0 67
      vertex 70 2 67
    endloop
  endfacet
  facet normal 0 0 1
    outer loop
      vertex 70 0 67
      vertex 2 2 67
      vertex 2 0 67
    endloop
  endfacet
  facet normal 0 -0.957826 0.287348
    outer loop
      vertex 0 0 67
      vertex 2 9 97
      vertex 0 9 97
    endloop
  endfacet
  facet normal 0 -0.957826 0.287348
    outer loop
      vertex 2 9 97
      vertex 0 0 67
      vertex 2 0 67
    endloop
  endfacet
  facet normal 0 -0.957826 0.287348
    outer loop
      vertex 70 0 67
      vertex 72 9 97
      vertex 70 9 97
    endloop
  endfacet
  facet normal 0 -0.957826 0.287348
    outer loop
      vertex 72 9 97
      vertex 70 0 67
      vertex 72 0 67
    endloop
  endfacet
endsolid OpenSCAD_Model
