solid OpenSCAD_Model
  facet normal 0 0 -1
    outer loop
      vertex 73.5 67.0131 0
      vertex 108.5 94.315 0
      vertex 108.5 45.685 0
    endloop
  endfacet
  facet normal 0 0 -1
    outer loop
      vertex 73.5 67.0131 0
      vertex 73.5 72.9869 0
      vertex 108.5 94.315 0
    endloop
  endfacet
  facet normal 0 0 -1
    outer loop
      vertex 38.5 45.685 0
      vertex 73.5 72.9869 0
      vertex 73.5 67.0131 0
    endloop
  endfacet
  facet normal -0 0 -1
    outer loop
      vertex 73.5 72.9869 0
      vertex 38.5 45.685 0
      vertex 38.5 94.315 0
    endloop
  endfacet
  facet normal 0 0 -1
    outer loop
      vertex 105.986 14.3532 0
      vertex 108.5 35.315 0
      vertex 108.642 14.9178 0
    endloop
  endfacet
  facet normal 0 0 -1
    outer loop
      vertex 103.506 13.2488 0
      vertex 108.5 35.315 0
      vertex 105.986 14.3532 0
    endloop
  endfacet
  facet normal 0 0 -1
    outer loop
      vertex 101.309 11.6527 0
      vertex 108.5 35.315 0
      vertex 103.506 13.2488 0
    endloop
  endfacet
  facet normal 0 0 -1
    outer loop
      vertex 73.5 13.9869 0
      vertex 101.309 11.6527 0
      vertex 99.4917 9.63474 0
    endloop
  endfacet
  facet normal 0 0 -1
    outer loop
      vertex 73.5 13.9869 0
      vertex 99.4917 9.63474 0
      vertex 98.134 7.28308 0
    endloop
  endfacet
  facet normal 0 0 -1
    outer loop
      vertex 101.309 11.6527 0
      vertex 73.5 13.9869 0
      vertex 108.5 35.315 0
    endloop
  endfacet
  facet normal 0 0 -1
    outer loop
      vertex 97.2948 4.70053 0
      vertex 73.5 13.9869 0
      vertex 98.134 7.28308 0
    endloop
  endfacet
  facet normal 0 0 -1
    outer loop
      vertex 96.8008 0 0
      vertex 73.5 13.9869 0
      vertex 97.2948 4.70053 0
    endloop
  endfacet
  facet normal 0 0 -1
    outer loop
      vertex 51.1992 0 0
      vertex 73.5 13.9869 0
      vertex 96.8008 0 0
    endloop
  endfacet
  facet normal 0 0 -1
    outer loop
      vertex 50.7051 4.70053 0
      vertex 73.5 13.9869 0
      vertex 51.1992 0 0
    endloop
  endfacet
  facet normal 0 0 -1
    outer loop
      vertex 49.866 7.28308 0
      vertex 73.5 13.9869 0
      vertex 50.7051 4.70053 0
    endloop
  endfacet
  facet normal 0 0 -1
    outer loop
      vertex 48.5083 9.63474 0
      vertex 73.5 13.9869 0
      vertex 49.866 7.28308 0
    endloop
  endfacet
  facet normal 0 0 -1
    outer loop
      vertex 46.6913 11.6527 0
      vertex 73.5 13.9869 0
      vertex 48.5083 9.63474 0
    endloop
  endfacet
  facet normal 0 0 -1
    outer loop
      vertex 38.5 35.315 0
      vertex 46.6913 11.6527 0
      vertex 44.4945 13.2488 0
    endloop
  endfacet
  facet normal 0 0 -1
    outer loop
      vertex 38.5 35.315 0
      vertex 44.4945 13.2488 0
      vertex 42.0138 14.3532 0
    endloop
  endfacet
  facet normal 0 0 -1
    outer loop
      vertex 38.5 35.315 0
      vertex 42.0138 14.3532 0
      vertex 39.3577 14.9178 0
    endloop
  endfacet
  facet normal 0 0 -1
    outer loop
      vertex 46.6913 11.6527 0
      vertex 38.5 35.315 0
      vertex 73.5 13.9869 0
    endloop
  endfacet
  facet normal 0 0 -1
    outer loop
      vertex 0 0 0
      vertex 38.5 45.685 0
      vertex 38.5 35.315 0
    endloop
  endfacet
  facet normal -0 0 -1
    outer loop
      vertex 38.5 45.685 0
      vertex 0 0 0
      vertex 38.5 94.315 0
    endloop
  endfacet
  facet normal 0 0 -1
    outer loop
      vertex 33.9862 14.3532 0
      vertex 38.5 35.315 0
      vertex 36.6423 14.9178 0
    endloop
  endfacet
  facet normal 0 0 -1
    outer loop
      vertex 36.6423 14.9178 0
      vertex 38.5 35.315 0
      vertex 39.3577 14.9178 0
    endloop
  endfacet
  facet normal 0 0 -1
    outer loop
      vertex 153.5 71.0131 0
      vertex 188.5 101.315 0
      vertex 188.5 49.685 0
    endloop
  endfacet
  facet normal 0 0 -1
    outer loop
      vertex 153.5 71.0131 0
      vertex 153.5 79.9869 0
      vertex 188.5 101.315 0
    endloop
  endfacet
  facet normal 0 0 -1
    outer loop
      vertex 108.5 94.315 0
      vertex 153.5 71.0131 0
      vertex 118.5 49.685 0
    endloop
  endfacet
  facet normal 0 0 -1
    outer loop
      vertex 153.5 71.0131 0
      vertex 108.5 94.315 0
      vertex 153.5 79.9869 0
    endloop
  endfacet
  facet normal 0 0 -1
    outer loop
      vertex 188.5 49.685 0
      vertex 207 0 0
      vertex 188.5 31.315 0
    endloop
  endfacet
  facet normal 0 0 -1
    outer loop
      vertex 207 0 0
      vertex 153.5 9.98688 0
      vertex 188.5 31.315 0
    endloop
  endfacet
  facet normal 0 0 -1
    outer loop
      vertex 123.199 0 0
      vertex 153.5 9.98688 0
      vertex 207 0 0
    endloop
  endfacet
  facet normal 0 0 -1
    outer loop
      vertex 122.705 4.70053 0
      vertex 153.5 9.98688 0
      vertex 123.199 0 0
    endloop
  endfacet
  facet normal 0 0 -1
    outer loop
      vertex 121.866 7.28308 0
      vertex 153.5 9.98688 0
      vertex 122.705 4.70053 0
    endloop
  endfacet
  facet normal 0 0 -1
    outer loop
      vertex 120.508 9.63474 0
      vertex 153.5 9.98688 0
      vertex 121.866 7.28308 0
    endloop
  endfacet
  facet normal 0 0 -1
    outer loop
      vertex 118.5 31.315 0
      vertex 120.508 9.63474 0
      vertex 118.691 11.6527 0
    endloop
  endfacet
  facet normal 0 0 -1
    outer loop
      vertex 120.508 9.63474 0
      vertex 118.5 31.315 0
      vertex 153.5 9.98688 0
    endloop
  endfacet
  facet normal 0 0 -1
    outer loop
      vertex 108.5 45.685 0
      vertex 118.5 49.685 0
      vertex 118.5 31.315 0
    endloop
  endfacet
  facet normal 0 0 -1
    outer loop
      vertex 108.5 94.315 0
      vertex 118.5 49.685 0
      vertex 108.5 45.685 0
    endloop
  endfacet
  facet normal 0 0 -1
    outer loop
      vertex 114.014 14.3532 0
      vertex 118.5 31.315 0
      vertex 116.494 13.2488 0
    endloop
  endfacet
  facet normal 0 0 -1
    outer loop
      vertex 116.494 13.2488 0
      vertex 118.5 31.315 0
      vertex 118.691 11.6527 0
    endloop
  endfacet
  facet normal 0 0 -1
    outer loop
      vertex 188.5 101.315 0
      vertex 207 0 0
      vertex 188.5 49.685 0
    endloop
  endfacet
  facet normal 0 0 -1
    outer loop
      vertex 207 0 0
      vertex 188.5 101.315 0
      vertex 207 159 0
    endloop
  endfacet
  facet normal 0 0 -1
    outer loop
      vertex 188.5 129.685 0
      vertex 207 159 0
      vertex 188.5 101.315 0
    endloop
  endfacet
  facet normal 0 0 -1
    outer loop
      vertex 153.5 151.013 0
      vertex 207 159 0
      vertex 188.5 129.685 0
    endloop
  endfacet
  facet normal 0 0 -1
    outer loop
      vertex 111.358 14.9178 0
      vertex 118.5 31.315 0
      vertex 114.014 14.3532 0
    endloop
  endfacet
  facet normal -0 0 -1
    outer loop
      vertex 118.5 31.315 0
      vertex 111.358 14.9178 0
      vertex 108.5 35.315 0
    endloop
  endfacet
  facet normal 0 0 -1
    outer loop
      vertex 108.5 35.315 0
      vertex 111.358 14.9178 0
      vertex 108.642 14.9178 0
    endloop
  endfacet
  facet normal 0 0 -1
    outer loop
      vertex 118.5 31.315 0
      vertex 108.5 35.315 0
      vertex 108.5 45.685 0
    endloop
  endfacet
  facet normal 0 0 -1
    outer loop
      vertex 153.5 79.9869 0
      vertex 108.5 94.315 0
      vertex 118.5 101.315 0
    endloop
  endfacet
  facet normal 0 0 -1
    outer loop
      vertex 108.5 132.685 0
      vertex 118.5 101.315 0
      vertex 108.5 94.315 0
    endloop
  endfacet
  facet normal 0 0 -1
    outer loop
      vertex 118.5 101.315 0
      vertex 108.5 132.685 0
      vertex 118.5 129.685 0
    endloop
  endfacet
  facet normal 0 0 -1
    outer loop
      vertex 108.5 132.685 0
      vertex 153.5 151.013 0
      vertex 118.5 129.685 0
    endloop
  endfacet
  facet normal 0 0 -1
    outer loop
      vertex 73.5 154.013 0
      vertex 153.5 151.013 0
      vertex 108.5 132.685 0
    endloop
  endfacet
  facet normal 0 0 -1
    outer loop
      vertex 73.5 154.013 0
      vertex 207 159 0
      vertex 153.5 151.013 0
    endloop
  endfacet
  facet normal 0 0 -1
    outer loop
      vertex 31.5055 13.2488 0
      vertex 38.5 35.315 0
      vertex 33.9862 14.3532 0
    endloop
  endfacet
  facet normal 0 0 -1
    outer loop
      vertex 29.3087 11.6527 0
      vertex 38.5 35.315 0
      vertex 31.5055 13.2488 0
    endloop
  endfacet
  facet normal 0 0 -1
    outer loop
      vertex 38.5 35.315 0
      vertex 29.3087 11.6527 0
      vertex 0 0 0
    endloop
  endfacet
  facet normal 0 0 -1
    outer loop
      vertex 0 0 0
      vertex 29.3087 11.6527 0
      vertex 27.4917 9.63474 0
    endloop
  endfacet
  facet normal 0 0 -1
    outer loop
      vertex 0 0 0
      vertex 27.4917 9.63474 0
      vertex 26.134 7.28308 0
    endloop
  endfacet
  facet normal 0 0 -1
    outer loop
      vertex 0 0 0
      vertex 26.134 7.28308 0
      vertex 25.2949 4.70053 0
    endloop
  endfacet
  facet normal 0 0 -1
    outer loop
      vertex 0 0 0
      vertex 25.2949 4.70053 0
      vertex 24.8008 0 0
    endloop
  endfacet
  facet normal -0 0 -1
    outer loop
      vertex 38.5 94.315 0
      vertex 0 0 0
      vertex 0 159 0
    endloop
  endfacet
  facet normal 0 0 -1
    outer loop
      vertex 73.5 154.013 0
      vertex 0 159 0
      vertex 207 159 0
    endloop
  endfacet
  facet normal 0 0 -1
    outer loop
      vertex 38.5 132.685 0
      vertex 0 159 0
      vertex 73.5 154.013 0
    endloop
  endfacet
  facet normal 0 0 -1
    outer loop
      vertex 38.5 94.315 0
      vertex 0 159 0
      vertex 38.5 132.685 0
    endloop
  endfacet
  facet normal 0 0 1
    outer loop
      vertex 207 159 40
      vertex 205 157 40
      vertex 207 0 40
    endloop
  endfacet
  facet normal 0 0 1
    outer loop
      vertex 207 159 40
      vertex 2 157 40
      vertex 205 157 40
    endloop
  endfacet
  facet normal 0 0 1
    outer loop
      vertex 2 157 40
      vertex 0 159 40
      vertex 2 2 40
    endloop
  endfacet
  facet normal -0 0 1
    outer loop
      vertex 0 159 40
      vertex 2 157 40
      vertex 207 159 40
    endloop
  endfacet
  facet normal -0 0 1
    outer loop
      vertex 205 2 40
      vertex 207 0 40
      vertex 205 157 40
    endloop
  endfacet
  facet normal 0 0 1
    outer loop
      vertex 123.199 0 40
      vertex 205 2 40
      vertex 125 2 40
    endloop
  endfacet
  facet normal 0 0 1
    outer loop
      vertex 122.705 4.70053 40
      vertex 124.672 5.11867 40
      vertex 123.703 8.10104 40
    endloop
  endfacet
  facet normal 0 0 1
    outer loop
      vertex 205 2 40
      vertex 123.199 0 40
      vertex 207 0 40
    endloop
  endfacet
  facet normal 0 0 1
    outer loop
      vertex 124.672 5.11867 40
      vertex 122.705 4.70053 40
      vertex 125 2 40
    endloop
  endfacet
  facet normal 0 0 1
    outer loop
      vertex 125 2 40
      vertex 122.705 4.70053 40
      vertex 123.199 0 40
    endloop
  endfacet
  facet normal 0 0 1
    outer loop
      vertex 121.866 7.28308 40
      vertex 123.703 8.10104 40
      vertex 122.135 10.8168 40
    endloop
  endfacet
  facet normal 0 0 1
    outer loop
      vertex 123.703 8.10104 40
      vertex 121.866 7.28308 40
      vertex 122.705 4.70053 40
    endloop
  endfacet
  facet normal 0 0 1
    outer loop
      vertex 122.135 10.8168 40
      vertex 120.508 9.63474 40
      vertex 121.866 7.28308 40
    endloop
  endfacet
  facet normal 0 0 1
    outer loop
      vertex 120.037 13.1472 40
      vertex 120.508 9.63474 40
      vertex 122.135 10.8168 40
    endloop
  endfacet
  facet normal 0 0 1
    outer loop
      vertex 120.037 13.1472 40
      vertex 118.691 11.6527 40
      vertex 120.508 9.63474 40
    endloop
  endfacet
  facet normal 0 0 1
    outer loop
      vertex 117.5 14.9904 40
      vertex 118.691 11.6527 40
      vertex 120.037 13.1472 40
    endloop
  endfacet
  facet normal 0 0 1
    outer loop
      vertex 117.5 14.9904 40
      vertex 116.494 13.2488 40
      vertex 118.691 11.6527 40
    endloop
  endfacet
  facet normal 0 0 1
    outer loop
      vertex 114.635 16.2658 40
      vertex 116.494 13.2488 40
      vertex 117.5 14.9904 40
    endloop
  endfacet
  facet normal 0 0 1
    outer loop
      vertex 114.635 16.2658 40
      vertex 114.014 14.3532 40
      vertex 116.494 13.2488 40
    endloop
  endfacet
  facet normal 0 0 1
    outer loop
      vertex 111.568 16.9178 40
      vertex 114.014 14.3532 40
      vertex 114.635 16.2658 40
    endloop
  endfacet
  facet normal 0 0 1
    outer loop
      vertex 111.568 16.9178 40
      vertex 111.358 14.9178 40
      vertex 114.014 14.3532 40
    endloop
  endfacet
  facet normal 0 0 1
    outer loop
      vertex 111.568 16.9178 40
      vertex 108.642 14.9178 40
      vertex 111.358 14.9178 40
    endloop
  endfacet
  facet normal -0 0 1
    outer loop
      vertex 108.432 16.9178 40
      vertex 108.642 14.9178 40
      vertex 111.568 16.9178 40
    endloop
  endfacet
  facet normal 0 0 1
    outer loop
      vertex 108.432 16.9178 40
      vertex 105.986 14.3532 40
      vertex 108.642 14.9178 40
    endloop
  endfacet
  facet normal -0 0 1
    outer loop
      vertex 105.365 16.2658 40
      vertex 105.986 14.3532 40
      vertex 108.432 16.9178 40
    endloop
  endfacet
  facet normal 0 0 1
    outer loop
      vertex 105.365 16.2658 40
      vertex 103.506 13.2488 40
      vertex 105.986 14.3532 40
    endloop
  endfacet
  facet normal -0 0 1
    outer loop
      vertex 102.5 14.9904 40
      vertex 103.506 13.2488 40
      vertex 105.365 16.2658 40
    endloop
  endfacet
  facet normal 0 0 1
    outer loop
      vertex 102.5 14.9904 40
      vertex 101.309 11.6527 40
      vertex 103.506 13.2488 40
    endloop
  endfacet
  facet normal -0 0 1
    outer loop
      vertex 99.963 13.1472 40
      vertex 101.309 11.6527 40
      vertex 102.5 14.9904 40
    endloop
  endfacet
  facet normal 0 0 1
    outer loop
      vertex 99.963 13.1472 40
      vertex 99.4917 9.63474 40
      vertex 101.309 11.6527 40
    endloop
  endfacet
  facet normal -0 0 1
    outer loop
      vertex 97.8647 10.8168 40
      vertex 99.4917 9.63474 40
      vertex 99.963 13.1472 40
    endloop
  endfacet
  facet normal 0 0 1
    outer loop
      vertex 99.4917 9.63474 40
      vertex 97.8647 10.8168 40
      vertex 98.134 7.28308 40
    endloop
  endfacet
  facet normal -0 0 1
    outer loop
      vertex 96.2968 8.10104 40
      vertex 98.134 7.28308 40
      vertex 97.8647 10.8168 40
    endloop
  endfacet
  facet normal 0 0 1
    outer loop
      vertex 98.134 7.28308 40
      vertex 96.2968 8.10104 40
      vertex 97.2948 4.70053 40
    endloop
  endfacet
  facet normal -0 0 1
    outer loop
      vertex 95.3278 5.11867 40
      vertex 97.2948 4.70053 40
      vertex 96.2968 8.10104 40
    endloop
  endfacet
  facet normal 0 0 1
    outer loop
      vertex 95 2 40
      vertex 97.2948 4.70053 40
      vertex 95.3278 5.11867 40
    endloop
  endfacet
  facet normal 0 0 1
    outer loop
      vertex 97.2948 4.70053 40
      vertex 95 2 40
      vertex 96.8008 0 40
    endloop
  endfacet
  facet normal -0 0 1
    outer loop
      vertex 53 2 40
      vertex 96.8008 0 40
      vertex 95 2 40
    endloop
  endfacet
  facet normal 0 0 1
    outer loop
      vertex 50.7051 4.70053 40
      vertex 52.6722 5.11867 40
      vertex 51.7032 8.10104 40
    endloop
  endfacet
  facet normal 0 0 1
    outer loop
      vertex 53 2 40
      vertex 51.1992 0 40
      vertex 96.8008 0 40
    endloop
  endfacet
  facet normal 0 0 1
    outer loop
      vertex 52.6722 5.11867 40
      vertex 50.7051 4.70053 40
      vertex 53 2 40
    endloop
  endfacet
  facet normal 0 0 1
    outer loop
      vertex 53 2 40
      vertex 50.7051 4.70053 40
      vertex 51.1992 0 40
    endloop
  endfacet
  facet normal 0 0 1
    outer loop
      vertex 49.866 7.28308 40
      vertex 51.7032 8.10104 40
      vertex 50.1353 10.8168 40
    endloop
  endfacet
  facet normal 0 0 1
    outer loop
      vertex 51.7032 8.10104 40
      vertex 49.866 7.28308 40
      vertex 50.7051 4.70053 40
    endloop
  endfacet
  facet normal 0 0 1
    outer loop
      vertex 50.1353 10.8168 40
      vertex 48.5083 9.63474 40
      vertex 49.866 7.28308 40
    endloop
  endfacet
  facet normal 0 0 1
    outer loop
      vertex 48.037 13.1472 40
      vertex 48.5083 9.63474 40
      vertex 50.1353 10.8168 40
    endloop
  endfacet
  facet normal 0 0 1
    outer loop
      vertex 48.037 13.1472 40
      vertex 46.6913 11.6527 40
      vertex 48.5083 9.63474 40
    endloop
  endfacet
  facet normal 0 0 1
    outer loop
      vertex 45.5 14.9904 40
      vertex 46.6913 11.6527 40
      vertex 48.037 13.1472 40
    endloop
  endfacet
  facet normal 0 0 1
    outer loop
      vertex 45.5 14.9904 40
      vertex 44.4945 13.2488 40
      vertex 46.6913 11.6527 40
    endloop
  endfacet
  facet normal 0 0 1
    outer loop
      vertex 42.6353 16.2658 40
      vertex 44.4945 13.2488 40
      vertex 45.5 14.9904 40
    endloop
  endfacet
  facet normal 0 0 1
    outer loop
      vertex 42.6353 16.2658 40
      vertex 42.0138 14.3532 40
      vertex 44.4945 13.2488 40
    endloop
  endfacet
  facet normal 0 0 1
    outer loop
      vertex 39.5679 16.9178 40
      vertex 42.0138 14.3532 40
      vertex 42.6353 16.2658 40
    endloop
  endfacet
  facet normal 0 0 1
    outer loop
      vertex 39.5679 16.9178 40
      vertex 39.3577 14.9178 40
      vertex 42.0138 14.3532 40
    endloop
  endfacet
  facet normal 0 0 1
    outer loop
      vertex 39.5679 16.9178 40
      vertex 36.6423 14.9178 40
      vertex 39.3577 14.9178 40
    endloop
  endfacet
  facet normal -0 0 1
    outer loop
      vertex 36.4321 16.9178 40
      vertex 36.6423 14.9178 40
      vertex 39.5679 16.9178 40
    endloop
  endfacet
  facet normal 0 0 1
    outer loop
      vertex 36.4321 16.9178 40
      vertex 33.9862 14.3532 40
      vertex 36.6423 14.9178 40
    endloop
  endfacet
  facet normal -0 0 1
    outer loop
      vertex 33.3647 16.2658 40
      vertex 33.9862 14.3532 40
      vertex 36.4321 16.9178 40
    endloop
  endfacet
  facet normal 0 0 1
    outer loop
      vertex 33.3647 16.2658 40
      vertex 31.5055 13.2488 40
      vertex 33.9862 14.3532 40
    endloop
  endfacet
  facet normal -0 0 1
    outer loop
      vertex 30.5 14.9904 40
      vertex 31.5055 13.2488 40
      vertex 33.3647 16.2658 40
    endloop
  endfacet
  facet normal 0 0 1
    outer loop
      vertex 30.5 14.9904 40
      vertex 29.3087 11.6527 40
      vertex 31.5055 13.2488 40
    endloop
  endfacet
  facet normal -0 0 1
    outer loop
      vertex 27.963 13.1472 40
      vertex 29.3087 11.6527 40
      vertex 30.5 14.9904 40
    endloop
  endfacet
  facet normal 0 0 1
    outer loop
      vertex 27.963 13.1472 40
      vertex 27.4917 9.63474 40
      vertex 29.3087 11.6527 40
    endloop
  endfacet
  facet normal -0 0 1
    outer loop
      vertex 25.8647 10.8168 40
      vertex 27.4917 9.63474 40
      vertex 27.963 13.1472 40
    endloop
  endfacet
  facet normal 0 0 1
    outer loop
      vertex 27.4917 9.63474 40
      vertex 25.8647 10.8168 40
      vertex 26.134 7.28308 40
    endloop
  endfacet
  facet normal -0 0 1
    outer loop
      vertex 24.2968 8.10104 40
      vertex 26.134 7.28308 40
      vertex 25.8647 10.8168 40
    endloop
  endfacet
  facet normal 0 0 1
    outer loop
      vertex 26.134 7.28308 40
      vertex 24.2968 8.10104 40
      vertex 25.2949 4.70053 40
    endloop
  endfacet
  facet normal -0 0 1
    outer loop
      vertex 23.3278 5.11867 40
      vertex 25.2949 4.70053 40
      vertex 24.2968 8.10104 40
    endloop
  endfacet
  facet normal 0 0 1
    outer loop
      vertex 23 2 40
      vertex 25.2949 4.70053 40
      vertex 23.3278 5.11867 40
    endloop
  endfacet
  facet normal 0 0 1
    outer loop
      vertex 25.2949 4.70053 40
      vertex 23 2 40
      vertex 24.8008 0 40
    endloop
  endfacet
  facet normal -0 0 1
    outer loop
      vertex 2 2 40
      vertex 24.8008 0 40
      vertex 23 2 40
    endloop
  endfacet
  facet normal 0 0 1
    outer loop
      vertex 2 2 40
      vertex 0 0 40
      vertex 24.8008 0 40
    endloop
  endfacet
  facet normal 0 0 1
    outer loop
      vertex 0 0 40
      vertex 2 2 40
      vertex 0 159 40
    endloop
  endfacet
  facet normal 0 0 1
    outer loop
      vertex 110.5 46.8083 40
      vertex 108.5 45.685 40
      vertex 110.5 34.1917 40
    endloop
  endfacet
  facet normal -0 0 1
    outer loop
      vertex 73.5 67.0131 40
      vertex 110.5 46.8083 40
      vertex 73.5 69.3552 40
    endloop
  endfacet
  facet normal 0 0 1
    outer loop
      vertex 110.5 46.8083 40
      vertex 73.5 67.0131 40
      vertex 108.5 45.685 40
    endloop
  endfacet
  facet normal 0 0 1
    outer loop
      vertex 36.5 46.8083 40
      vertex 73.5 67.0131 40
      vertex 73.5 69.3552 40
    endloop
  endfacet
  facet normal 0 0 1
    outer loop
      vertex 38.5 45.685 40
      vertex 36.5 46.8083 40
      vertex 38.5 35.315 40
    endloop
  endfacet
  facet normal 0 0 1
    outer loop
      vertex 73.5 67.0131 40
      vertex 36.5 46.8083 40
      vertex 38.5 45.685 40
    endloop
  endfacet
  facet normal -0 0 1
    outer loop
      vertex 108.5 35.315 40
      vertex 110.5 34.1917 40
      vertex 108.5 45.685 40
    endloop
  endfacet
  facet normal 0 0 1
    outer loop
      vertex 73.5 13.9869 40
      vertex 110.5 34.1917 40
      vertex 108.5 35.315 40
    endloop
  endfacet
  facet normal -0 0 1
    outer loop
      vertex 73.5 13.9869 40
      vertex 73.5 11.6448 40
      vertex 110.5 34.1917 40
    endloop
  endfacet
  facet normal -0 0 1
    outer loop
      vertex 36.5 34.1917 40
      vertex 73.5 13.9869 40
      vertex 38.5 35.315 40
    endloop
  endfacet
  facet normal 0 0 1
    outer loop
      vertex 73.5 13.9869 40
      vertex 36.5 34.1917 40
      vertex 73.5 11.6448 40
    endloop
  endfacet
  facet normal 0 0 1
    outer loop
      vertex 36.5 34.1917 40
      vertex 38.5 35.315 40
      vertex 36.5 46.8083 40
    endloop
  endfacet
  facet normal 0 0 1
    outer loop
      vertex 110.5 133.808 40
      vertex 108.5 132.685 40
      vertex 110.5 93.1917 40
    endloop
  endfacet
  facet normal -0 0 1
    outer loop
      vertex 73.5 154.013 40
      vertex 110.5 133.808 40
      vertex 73.5 156.355 40
    endloop
  endfacet
  facet normal 0 0 1
    outer loop
      vertex 110.5 133.808 40
      vertex 73.5 154.013 40
      vertex 108.5 132.685 40
    endloop
  endfacet
  facet normal 0 0 1
    outer loop
      vertex 36.5 133.808 40
      vertex 73.5 154.013 40
      vertex 73.5 156.355 40
    endloop
  endfacet
  facet normal 0 0 1
    outer loop
      vertex 38.5 132.685 40
      vertex 36.5 133.808 40
      vertex 38.5 94.315 40
    endloop
  endfacet
  facet normal 0 0 1
    outer loop
      vertex 73.5 154.013 40
      vertex 36.5 133.808 40
      vertex 38.5 132.685 40
    endloop
  endfacet
  facet normal -0 0 1
    outer loop
      vertex 108.5 94.315 40
      vertex 110.5 93.1917 40
      vertex 108.5 132.685 40
    endloop
  endfacet
  facet normal 0 0 1
    outer loop
      vertex 73.5 72.9869 40
      vertex 110.5 93.1917 40
      vertex 108.5 94.315 40
    endloop
  endfacet
  facet normal -0 0 1
    outer loop
      vertex 73.5 72.9869 40
      vertex 73.5 70.6448 40
      vertex 110.5 93.1917 40
    endloop
  endfacet
  facet normal -0 0 1
    outer loop
      vertex 36.5 93.1917 40
      vertex 73.5 72.9869 40
      vertex 38.5 94.315 40
    endloop
  endfacet
  facet normal 0 0 1
    outer loop
      vertex 73.5 72.9869 40
      vertex 36.5 93.1917 40
      vertex 73.5 70.6448 40
    endloop
  endfacet
  facet normal 0 0 1
    outer loop
      vertex 36.5 93.1917 40
      vertex 38.5 94.315 40
      vertex 36.5 133.808 40
    endloop
  endfacet
  facet normal 0 0 1
    outer loop
      vertex 190.5 130.808 40
      vertex 188.5 129.685 40
      vertex 190.5 100.192 40
    endloop
  endfacet
  facet normal -0 0 1
    outer loop
      vertex 153.5 151.013 40
      vertex 190.5 130.808 40
      vertex 153.5 153.355 40
    endloop
  endfacet
  facet normal 0 0 1
    outer loop
      vertex 190.5 130.808 40
      vertex 153.5 151.013 40
      vertex 188.5 129.685 40
    endloop
  endfacet
  facet normal 0 0 1
    outer loop
      vertex 116.5 130.808 40
      vertex 153.5 151.013 40
      vertex 153.5 153.355 40
    endloop
  endfacet
  facet normal 0 0 1
    outer loop
      vertex 118.5 129.685 40
      vertex 116.5 130.808 40
      vertex 118.5 101.315 40
    endloop
  endfacet
  facet normal 0 0 1
    outer loop
      vertex 153.5 151.013 40
      vertex 116.5 130.808 40
      vertex 118.5 129.685 40
    endloop
  endfacet
  facet normal -0 0 1
    outer loop
      vertex 188.5 101.315 40
      vertex 190.5 100.192 40
      vertex 188.5 129.685 40
    endloop
  endfacet
  facet normal 0 0 1
    outer loop
      vertex 153.5 79.9869 40
      vertex 190.5 100.192 40
      vertex 188.5 101.315 40
    endloop
  endfacet
  facet normal -0 0 1
    outer loop
      vertex 153.5 79.9869 40
      vertex 153.5 77.6448 40
      vertex 190.5 100.192 40
    endloop
  endfacet
  facet normal -0 0 1
    outer loop
      vertex 116.5 100.192 40
      vertex 153.5 79.9869 40
      vertex 118.5 101.315 40
    endloop
  endfacet
  facet normal 0 0 1
    outer loop
      vertex 153.5 79.9869 40
      vertex 116.5 100.192 40
      vertex 153.5 77.6448 40
    endloop
  endfacet
  facet normal 0 0 1
    outer loop
      vertex 116.5 100.192 40
      vertex 118.5 101.315 40
      vertex 116.5 130.808 40
    endloop
  endfacet
  facet normal 0 0 1
    outer loop
      vertex 190.5 50.8083 40
      vertex 188.5 49.685 40
      vertex 190.5 30.1917 40
    endloop
  endfacet
  facet normal -0 0 1
    outer loop
      vertex 153.5 71.0131 40
      vertex 190.5 50.8083 40
      vertex 153.5 73.3552 40
    endloop
  endfacet
  facet normal 0 0 1
    outer loop
      vertex 190.5 50.8083 40
      vertex 153.5 71.0131 40
      vertex 188.5 49.685 40
    endloop
  endfacet
  facet normal 0 0 1
    outer loop
      vertex 116.5 50.8083 40
      vertex 153.5 71.0131 40
      vertex 153.5 73.3552 40
    endloop
  endfacet
  facet normal 0 0 1
    outer loop
      vertex 118.5 49.685 40
      vertex 116.5 50.8083 40
      vertex 118.5 31.315 40
    endloop
  endfacet
  facet normal 0 0 1
    outer loop
      vertex 153.5 71.0131 40
      vertex 116.5 50.8083 40
      vertex 118.5 49.685 40
    endloop
  endfacet
  facet normal -0 0 1
    outer loop
      vertex 188.5 31.315 40
      vertex 190.5 30.1917 40
      vertex 188.5 49.685 40
    endloop
  endfacet
  facet normal 0 0 1
    outer loop
      vertex 153.5 9.98688 40
      vertex 190.5 30.1917 40
      vertex 188.5 31.315 40
    endloop
  endfacet
  facet normal -0 0 1
    outer loop
      vertex 153.5 9.98688 40
      vertex 153.5 7.64479 40
      vertex 190.5 30.1917 40
    endloop
  endfacet
  facet normal -0 0 1
    outer loop
      vertex 116.5 30.1917 40
      vertex 153.5 9.98688 40
      vertex 118.5 31.315 40
    endloop
  endfacet
  facet normal 0 0 1
    outer loop
      vertex 153.5 9.98688 40
      vertex 116.5 30.1917 40
      vertex 153.5 7.64479 40
    endloop
  endfacet
  facet normal 0 0 1
    outer loop
      vertex 116.5 30.1917 40
      vertex 118.5 31.315 40
      vertex 116.5 50.8083 40
    endloop
  endfacet
  facet normal 0.951059 -0.30901 0
    outer loop
      vertex 25.2949 4.70053 40
      vertex 26.134 7.28308 0
      vertex 26.134 7.28308 40
    endloop
  endfacet
  facet normal 0.951059 -0.30901 0
    outer loop
      vertex 26.134 7.28308 0
      vertex 25.2949 4.70053 40
      vertex 25.2949 4.70053 0
    endloop
  endfacet
  facet normal 0.86603 -0.499991 0
    outer loop
      vertex 26.134 7.28308 40
      vertex 27.4917 9.63474 0
      vertex 27.4917 9.63474 40
    endloop
  endfacet
  facet normal 0.86603 -0.499991 0
    outer loop
      vertex 27.4917 9.63474 0
      vertex 26.134 7.28308 40
      vertex 26.134 7.28308 0
    endloop
  endfacet
  facet normal 0.743141 -0.669135 0
    outer loop
      vertex 27.4917 9.63474 40
      vertex 29.3087 11.6527 0
      vertex 29.3087 11.6527 40
    endloop
  endfacet
  facet normal 0.743141 -0.669135 0
    outer loop
      vertex 29.3087 11.6527 0
      vertex 27.4917 9.63474 40
      vertex 27.4917 9.63474 0
    endloop
  endfacet
  facet normal 0.587793 -0.809011 0
    outer loop
      vertex 29.3087 11.6527 0
      vertex 31.5055 13.2488 40
      vertex 29.3087 11.6527 40
    endloop
  endfacet
  facet normal 0.587793 -0.809011 0
    outer loop
      vertex 31.5055 13.2488 40
      vertex 29.3087 11.6527 0
      vertex 31.5055 13.2488 0
    endloop
  endfacet
  facet normal 0.406712 -0.913556 0
    outer loop
      vertex 31.5055 13.2488 0
      vertex 33.9862 14.3532 40
      vertex 31.5055 13.2488 40
    endloop
  endfacet
  facet normal 0.406712 -0.913556 0
    outer loop
      vertex 33.9862 14.3532 40
      vertex 31.5055 13.2488 0
      vertex 33.9862 14.3532 0
    endloop
  endfacet
  facet normal 0.207922 -0.978145 0
    outer loop
      vertex 33.9862 14.3532 0
      vertex 36.6423 14.9178 40
      vertex 33.9862 14.3532 40
    endloop
  endfacet
  facet normal 0.207922 -0.978145 0
    outer loop
      vertex 36.6423 14.9178 40
      vertex 33.9862 14.3532 0
      vertex 36.6423 14.9178 0
    endloop
  endfacet
  facet normal 0 -1 0
    outer loop
      vertex 36.6423 14.9178 0
      vertex 39.3577 14.9178 40
      vertex 36.6423 14.9178 40
    endloop
  endfacet
  facet normal 0 -1 -0
    outer loop
      vertex 39.3577 14.9178 40
      vertex 36.6423 14.9178 0
      vertex 39.3577 14.9178 0
    endloop
  endfacet
  facet normal -0.207922 -0.978145 0
    outer loop
      vertex 39.3577 14.9178 0
      vertex 42.0138 14.3532 40
      vertex 39.3577 14.9178 40
    endloop
  endfacet
  facet normal -0.207922 -0.978145 -0
    outer loop
      vertex 42.0138 14.3532 40
      vertex 39.3577 14.9178 0
      vertex 42.0138 14.3532 0
    endloop
  endfacet
  facet normal -0.406712 -0.913556 0
    outer loop
      vertex 42.0138 14.3532 0
      vertex 44.4945 13.2488 40
      vertex 42.0138 14.3532 40
    endloop
  endfacet
  facet normal -0.406712 -0.913556 -0
    outer loop
      vertex 44.4945 13.2488 40
      vertex 42.0138 14.3532 0
      vertex 44.4945 13.2488 0
    endloop
  endfacet
  facet normal -0.587793 -0.809011 0
    outer loop
      vertex 44.4945 13.2488 0
      vertex 46.6913 11.6527 40
      vertex 44.4945 13.2488 40
    endloop
  endfacet
  facet normal -0.587793 -0.809011 -0
    outer loop
      vertex 46.6913 11.6527 40
      vertex 44.4945 13.2488 0
      vertex 46.6913 11.6527 0
    endloop
  endfacet
  facet normal -0.743141 -0.669135 0
    outer loop
      vertex 48.5083 9.63474 0
      vertex 46.6913 11.6527 40
      vertex 46.6913 11.6527 0
    endloop
  endfacet
  facet normal -0.743141 -0.669135 0
    outer loop
      vertex 46.6913 11.6527 40
      vertex 48.5083 9.63474 0
      vertex 48.5083 9.63474 40
    endloop
  endfacet
  facet normal -0.86603 -0.499991 0
    outer loop
      vertex 49.866 7.28308 0
      vertex 48.5083 9.63474 40
      vertex 48.5083 9.63474 0
    endloop
  endfacet
  facet normal -0.86603 -0.499991 0
    outer loop
      vertex 48.5083 9.63474 40
      vertex 49.866 7.28308 0
      vertex 49.866 7.28308 40
    endloop
  endfacet
  facet normal -0.951059 -0.30901 0
    outer loop
      vertex 50.7051 4.70053 0
      vertex 49.866 7.28308 40
      vertex 49.866 7.28308 0
    endloop
  endfacet
  facet normal -0.951059 -0.30901 0
    outer loop
      vertex 49.866 7.28308 40
      vertex 50.7051 4.70053 0
      vertex 50.7051 4.70053 40
    endloop
  endfacet
  facet normal -0.994521 -0.10454 0
    outer loop
      vertex 51.1992 0 0
      vertex 50.7051 4.70053 40
      vertex 50.7051 4.70053 0
    endloop
  endfacet
  facet normal -0.994521 -0.10454 0
    outer loop
      vertex 50.7051 4.70053 40
      vertex 51.1992 0 0
      vertex 51.1992 0 40
    endloop
  endfacet
  facet normal 0 -1 0
    outer loop
      vertex 51.1992 0 0
      vertex 96.8008 0 40
      vertex 51.1992 0 40
    endloop
  endfacet
  facet normal 0 -1 -0
    outer loop
      vertex 96.8008 0 40
      vertex 51.1992 0 0
      vertex 96.8008 0 0
    endloop
  endfacet
  facet normal 0.994523 -0.104519 0
    outer loop
      vertex 96.8008 0 40
      vertex 97.2948 4.70053 0
      vertex 97.2948 4.70053 40
    endloop
  endfacet
  facet normal 0.994523 -0.104519 0
    outer loop
      vertex 97.2948 4.70053 0
      vertex 96.8008 0 40
      vertex 96.8008 0 0
    endloop
  endfacet
  facet normal 0.951048 -0.309043 0
    outer loop
      vertex 97.2948 4.70053 40
      vertex 98.134 7.28308 0
      vertex 98.134 7.28308 40
    endloop
  endfacet
  facet normal 0.951048 -0.309043 0
    outer loop
      vertex 98.134 7.28308 0
      vertex 97.2948 4.70053 40
      vertex 97.2948 4.70053 0
    endloop
  endfacet
  facet normal 0.86603 -0.499991 0
    outer loop
      vertex 98.134 7.28308 40
      vertex 99.4917 9.63474 0
      vertex 99.4917 9.63474 40
    endloop
  endfacet
  facet normal 0.86603 -0.499991 0
    outer loop
      vertex 99.4917 9.63474 0
      vertex 98.134 7.28308 40
      vertex 98.134 7.28308 0
    endloop
  endfacet
  facet normal 0.743086 -0.669196 0
    outer loop
      vertex 99.4917 9.63474 40
      vertex 101.309 11.6527 0
      vertex 101.309 11.6527 40
    endloop
  endfacet
  facet normal 0.743086 -0.669196 0
    outer loop
      vertex 101.309 11.6527 0
      vertex 99.4917 9.63474 40
      vertex 99.4917 9.63474 0
    endloop
  endfacet
  facet normal 0.587758 -0.809037 0
    outer loop
      vertex 101.309 11.6527 0
      vertex 103.506 13.2488 40
      vertex 101.309 11.6527 40
    endloop
  endfacet
  facet normal 0.587758 -0.809037 0
    outer loop
      vertex 103.506 13.2488 40
      vertex 101.309 11.6527 0
      vertex 103.506 13.2488 0
    endloop
  endfacet
  facet normal 0.406808 -0.913514 0
    outer loop
      vertex 103.506 13.2488 0
      vertex 105.986 14.3532 40
      vertex 103.506 13.2488 40
    endloop
  endfacet
  facet normal 0.406808 -0.913514 0
    outer loop
      vertex 105.986 14.3532 40
      vertex 103.506 13.2488 0
      vertex 105.986 14.3532 0
    endloop
  endfacet
  facet normal 0.207929 -0.978144 0
    outer loop
      vertex 105.986 14.3532 0
      vertex 108.642 14.9178 40
      vertex 105.986 14.3532 40
    endloop
  endfacet
  facet normal 0.207929 -0.978144 0
    outer loop
      vertex 108.642 14.9178 40
      vertex 105.986 14.3532 0
      vertex 108.642 14.9178 0
    endloop
  endfacet
  facet normal 0 -1 0
    outer loop
      vertex 108.642 14.9178 0
      vertex 111.358 14.9178 40
      vertex 108.642 14.9178 40
    endloop
  endfacet
  facet normal 0 -1 -0
    outer loop
      vertex 111.358 14.9178 40
      vertex 108.642 14.9178 0
      vertex 111.358 14.9178 0
    endloop
  endfacet
  facet normal -0.207929 -0.978144 0
    outer loop
      vertex 111.358 14.9178 0
      vertex 114.014 14.3532 40
      vertex 111.358 14.9178 40
    endloop
  endfacet
  facet normal -0.207929 -0.978144 -0
    outer loop
      vertex 114.014 14.3532 40
      vertex 111.358 14.9178 0
      vertex 114.014 14.3532 0
    endloop
  endfacet
  facet normal -0.406808 -0.913514 0
    outer loop
      vertex 114.014 14.3532 0
      vertex 116.494 13.2488 40
      vertex 114.014 14.3532 40
    endloop
  endfacet
  facet normal -0.406808 -0.913514 -0
    outer loop
      vertex 116.494 13.2488 40
      vertex 114.014 14.3532 0
      vertex 116.494 13.2488 0
    endloop
  endfacet
  facet normal -0.587758 -0.809037 0
    outer loop
      vertex 116.494 13.2488 0
      vertex 118.691 11.6527 40
      vertex 116.494 13.2488 40
    endloop
  endfacet
  facet normal -0.587758 -0.809037 -0
    outer loop
      vertex 118.691 11.6527 40
      vertex 116.494 13.2488 0
      vertex 118.691 11.6527 0
    endloop
  endfacet
  facet normal -0.743141 -0.669135 0
    outer loop
      vertex 120.508 9.63474 0
      vertex 118.691 11.6527 40
      vertex 118.691 11.6527 0
    endloop
  endfacet
  facet normal -0.743141 -0.669135 0
    outer loop
      vertex 118.691 11.6527 40
      vertex 120.508 9.63474 0
      vertex 120.508 9.63474 40
    endloop
  endfacet
  facet normal -0.865983 -0.500074 0
    outer loop
      vertex 121.866 7.28308 0
      vertex 120.508 9.63474 40
      vertex 120.508 9.63474 0
    endloop
  endfacet
  facet normal -0.865983 -0.500074 0
    outer loop
      vertex 120.508 9.63474 40
      vertex 121.866 7.28308 0
      vertex 121.866 7.28308 40
    endloop
  endfacet
  facet normal -0.95107 -0.308977 0
    outer loop
      vertex 122.705 4.70053 0
      vertex 121.866 7.28308 40
      vertex 121.866 7.28308 0
    endloop
  endfacet
  facet normal -0.95107 -0.308977 0
    outer loop
      vertex 121.866 7.28308 40
      vertex 122.705 4.70053 0
      vertex 122.705 4.70053 40
    endloop
  endfacet
  facet normal -0.994523 -0.104519 0
    outer loop
      vertex 123.199 0 0
      vertex 122.705 4.70053 40
      vertex 122.705 4.70053 0
    endloop
  endfacet
  facet normal -0.994523 -0.104519 0
    outer loop
      vertex 122.705 4.70053 40
      vertex 123.199 0 0
      vertex 123.199 0 40
    endloop
  endfacet
  facet normal 0 -1 0
    outer loop
      vertex 123.199 0 0
      vertex 207 0 40
      vertex 123.199 0 40
    endloop
  endfacet
  facet normal 0 -1 -0
    outer loop
      vertex 207 0 40
      vertex 123.199 0 0
      vertex 207 0 0
    endloop
  endfacet
  facet normal 1 -0 0
    outer loop
      vertex 207 0 40
      vertex 207 159 0
      vertex 207 159 40
    endloop
  endfacet
  facet normal 1 0 0
    outer loop
      vertex 207 159 0
      vertex 207 0 40
      vertex 207 0 0
    endloop
  endfacet
  facet normal 0 1 -0
    outer loop
      vertex 207 159 0
      vertex 0 159 40
      vertex 207 159 40
    endloop
  endfacet
  facet normal 0 1 0
    outer loop
      vertex 0 159 40
      vertex 207 159 0
      vertex 0 159 0
    endloop
  endfacet
  facet normal -1 0 0
    outer loop
      vertex 0 0 0
      vertex 0 159 40
      vertex 0 159 0
    endloop
  endfacet
  facet normal -1 -0 0
    outer loop
      vertex 0 159 40
      vertex 0 0 0
      vertex 0 0 40
    endloop
  endfacet
  facet normal 0 -1 0
    outer loop
      vertex 0 0 0
      vertex 24.8008 0 40
      vertex 0 0 40
    endloop
  endfacet
  facet normal 0 -1 -0
    outer loop
      vertex 24.8008 0 40
      vertex 0 0 0
      vertex 24.8008 0 0
    endloop
  endfacet
  facet normal 0.994521 -0.10454 0
    outer loop
      vertex 24.8008 0 40
      vertex 25.2949 4.70053 0
      vertex 25.2949 4.70053 40
    endloop
  endfacet
  facet normal 0.994521 -0.10454 0
    outer loop
      vertex 25.2949 4.70053 0
      vertex 24.8008 0 40
      vertex 24.8008 0 0
    endloop
  endfacet
  facet normal 1 -0 0
    outer loop
      vertex 38.5 94.315 40
      vertex 38.5 132.685 0
      vertex 38.5 132.685 40
    endloop
  endfacet
  facet normal 1 0 0
    outer loop
      vertex 38.5 132.685 0
      vertex 38.5 94.315 40
      vertex 38.5 94.315 0
    endloop
  endfacet
  facet normal 0.520368 -0.853942 0
    outer loop
      vertex 38.5 132.685 0
      vertex 73.5 154.013 40
      vertex 38.5 132.685 40
    endloop
  endfacet
  facet normal 0.520368 -0.853942 0
    outer loop
      vertex 73.5 154.013 40
      vertex 38.5 132.685 0
      vertex 73.5 154.013 0
    endloop
  endfacet
  facet normal -0.520368 -0.853942 0
    outer loop
      vertex 73.5 154.013 0
      vertex 108.5 132.685 40
      vertex 73.5 154.013 40
    endloop
  endfacet
  facet normal -0.520368 -0.853942 -0
    outer loop
      vertex 108.5 132.685 40
      vertex 73.5 154.013 0
      vertex 108.5 132.685 0
    endloop
  endfacet
  facet normal -1 0 0
    outer loop
      vertex 108.5 94.315 0
      vertex 108.5 132.685 40
      vertex 108.5 132.685 0
    endloop
  endfacet
  facet normal -1 -0 0
    outer loop
      vertex 108.5 132.685 40
      vertex 108.5 94.315 0
      vertex 108.5 94.315 40
    endloop
  endfacet
  facet normal -0.52037 0.853941 0
    outer loop
      vertex 108.5 94.315 0
      vertex 73.5 72.9869 40
      vertex 108.5 94.315 40
    endloop
  endfacet
  facet normal -0.52037 0.853941 0
    outer loop
      vertex 73.5 72.9869 40
      vertex 108.5 94.315 0
      vertex 73.5 72.9869 0
    endloop
  endfacet
  facet normal 0.52037 0.853941 -0
    outer loop
      vertex 73.5 72.9869 0
      vertex 38.5 94.315 40
      vertex 73.5 72.9869 40
    endloop
  endfacet
  facet normal 0.52037 0.853941 0
    outer loop
      vertex 38.5 94.315 40
      vertex 73.5 72.9869 0
      vertex 38.5 94.315 0
    endloop
  endfacet
  facet normal 1 -0 0
    outer loop
      vertex 118.5 101.315 40
      vertex 118.5 129.685 0
      vertex 118.5 129.685 40
    endloop
  endfacet
  facet normal 1 0 0
    outer loop
      vertex 118.5 129.685 0
      vertex 118.5 101.315 40
      vertex 118.5 101.315 0
    endloop
  endfacet
  facet normal 0.520368 -0.853942 0
    outer loop
      vertex 118.5 129.685 0
      vertex 153.5 151.013 40
      vertex 118.5 129.685 40
    endloop
  endfacet
  facet normal 0.520368 -0.853942 0
    outer loop
      vertex 153.5 151.013 40
      vertex 118.5 129.685 0
      vertex 153.5 151.013 0
    endloop
  endfacet
  facet normal -0.520368 -0.853942 0
    outer loop
      vertex 153.5 151.013 0
      vertex 188.5 129.685 40
      vertex 153.5 151.013 40
    endloop
  endfacet
  facet normal -0.520368 -0.853942 -0
    outer loop
      vertex 188.5 129.685 40
      vertex 153.5 151.013 0
      vertex 188.5 129.685 0
    endloop
  endfacet
  facet normal -1 0 0
    outer loop
      vertex 188.5 101.315 0
      vertex 188.5 129.685 40
      vertex 188.5 129.685 0
    endloop
  endfacet
  facet normal -1 -0 0
    outer loop
      vertex 188.5 129.685 40
      vertex 188.5 101.315 0
      vertex 188.5 101.315 40
    endloop
  endfacet
  facet normal -0.52037 0.853941 0
    outer loop
      vertex 188.5 101.315 0
      vertex 153.5 79.9869 40
      vertex 188.5 101.315 40
    endloop
  endfacet
  facet normal -0.52037 0.853941 0
    outer loop
      vertex 153.5 79.9869 40
      vertex 188.5 101.315 0
      vertex 153.5 79.9869 0
    endloop
  endfacet
  facet normal 0.52037 0.853941 -0
    outer loop
      vertex 153.5 79.9869 0
      vertex 118.5 101.315 40
      vertex 153.5 79.9869 40
    endloop
  endfacet
  facet normal 0.52037 0.853941 0
    outer loop
      vertex 118.5 101.315 40
      vertex 153.5 79.9869 0
      vertex 118.5 101.315 0
    endloop
  endfacet
  facet normal 1 -0 0
    outer loop
      vertex 118.5 31.315 40
      vertex 118.5 49.685 0
      vertex 118.5 49.685 40
    endloop
  endfacet
  facet normal 1 0 0
    outer loop
      vertex 118.5 49.685 0
      vertex 118.5 31.315 40
      vertex 118.5 31.315 0
    endloop
  endfacet
  facet normal 0.52037 -0.853941 0
    outer loop
      vertex 118.5 49.685 0
      vertex 153.5 71.0131 40
      vertex 118.5 49.685 40
    endloop
  endfacet
  facet normal 0.52037 -0.853941 0
    outer loop
      vertex 153.5 71.0131 40
      vertex 118.5 49.685 0
      vertex 153.5 71.0131 0
    endloop
  endfacet
  facet normal -0.52037 -0.853941 0
    outer loop
      vertex 153.5 71.0131 0
      vertex 188.5 49.685 40
      vertex 153.5 71.0131 40
    endloop
  endfacet
  facet normal -0.52037 -0.853941 -0
    outer loop
      vertex 188.5 49.685 40
      vertex 153.5 71.0131 0
      vertex 188.5 49.685 0
    endloop
  endfacet
  facet normal -1 0 0
    outer loop
      vertex 188.5 31.315 0
      vertex 188.5 49.685 40
      vertex 188.5 49.685 0
    endloop
  endfacet
  facet normal -1 -0 0
    outer loop
      vertex 188.5 49.685 40
      vertex 188.5 31.315 0
      vertex 188.5 31.315 40
    endloop
  endfacet
  facet normal -0.52037 0.853941 0
    outer loop
      vertex 188.5 31.315 0
      vertex 153.5 9.98688 40
      vertex 188.5 31.315 40
    endloop
  endfacet
  facet normal -0.52037 0.853941 0
    outer loop
      vertex 153.5 9.98688 40
      vertex 188.5 31.315 0
      vertex 153.5 9.98688 0
    endloop
  endfacet
  facet normal 0.52037 0.853941 -0
    outer loop
      vertex 153.5 9.98688 0
      vertex 118.5 31.315 40
      vertex 153.5 9.98688 40
    endloop
  endfacet
  facet normal 0.52037 0.853941 0
    outer loop
      vertex 118.5 31.315 40
      vertex 153.5 9.98688 0
      vertex 118.5 31.315 0
    endloop
  endfacet
  facet normal 1 -0 0
    outer loop
      vertex 38.5 35.315 40
      vertex 38.5 45.685 0
      vertex 38.5 45.685 40
    endloop
  endfacet
  facet normal 1 0 0
    outer loop
      vertex 38.5 45.685 0
      vertex 38.5 35.315 40
      vertex 38.5 35.315 0
    endloop
  endfacet
  facet normal 0.52037 -0.853941 0
    outer loop
      vertex 38.5 45.685 0
      vertex 73.5 67.0131 40
      vertex 38.5 45.685 40
    endloop
  endfacet
  facet normal 0.52037 -0.853941 0
    outer loop
      vertex 73.5 67.0131 40
      vertex 38.5 45.685 0
      vertex 73.5 67.0131 0
    endloop
  endfacet
  facet normal -0.52037 -0.853941 0
    outer loop
      vertex 73.5 67.0131 0
      vertex 108.5 45.685 40
      vertex 73.5 67.0131 40
    endloop
  endfacet
  facet normal -0.52037 -0.853941 -0
    outer loop
      vertex 108.5 45.685 40
      vertex 73.5 67.0131 0
      vertex 108.5 45.685 0
    endloop
  endfacet
  facet normal -1 0 0
    outer loop
      vertex 108.5 35.315 0
      vertex 108.5 45.685 40
      vertex 108.5 45.685 0
    endloop
  endfacet
  facet normal -1 -0 0
    outer loop
      vertex 108.5 45.685 40
      vertex 108.5 35.315 0
      vertex 108.5 35.315 40
    endloop
  endfacet
  facet normal -0.52037 0.853941 0
    outer loop
      vertex 108.5 35.315 0
      vertex 73.5 13.9869 40
      vertex 108.5 35.315 40
    endloop
  endfacet
  facet normal -0.52037 0.853941 0
    outer loop
      vertex 73.5 13.9869 40
      vertex 108.5 35.315 0
      vertex 73.5 13.9869 0
    endloop
  endfacet
  facet normal 0.52037 0.853941 -0
    outer loop
      vertex 73.5 13.9869 0
      vertex 38.5 35.315 40
      vertex 73.5 13.9869 40
    endloop
  endfacet
  facet normal 0.52037 0.853941 0
    outer loop
      vertex 38.5 35.315 40
      vertex 73.5 13.9869 0
      vertex 38.5 35.315 0
    endloop
  endfacet
  facet normal -0 0 1
    outer loop
      vertex 73.5 70.6448 1
      vertex 110.5 46.8083 1
      vertex 110.5 93.1917 1
    endloop
  endfacet
  facet normal 0 0 1
    outer loop
      vertex 73.5 70.6448 1
      vertex 73.5 69.3552 1
      vertex 110.5 46.8083 1
    endloop
  endfacet
  facet normal 0 0 1
    outer loop
      vertex 36.5 93.1917 1
      vertex 73.5 69.3552 1
      vertex 73.5 70.6448 1
    endloop
  endfacet
  facet normal 0 0 1
    outer loop
      vertex 73.5 69.3552 1
      vertex 36.5 93.1917 1
      vertex 36.5 46.8083 1
    endloop
  endfacet
  facet normal -0 0 1
    outer loop
      vertex 153.5 77.6448 1
      vertex 190.5 50.8083 1
      vertex 190.5 100.192 1
    endloop
  endfacet
  facet normal 0 0 1
    outer loop
      vertex 153.5 77.6448 1
      vertex 153.5 73.3552 1
      vertex 190.5 50.8083 1
    endloop
  endfacet
  facet normal -0 0 1
    outer loop
      vertex 110.5 93.1917 1
      vertex 153.5 77.6448 1
      vertex 116.5 100.192 1
    endloop
  endfacet
  facet normal 0 0 1
    outer loop
      vertex 153.5 77.6448 1
      vertex 110.5 93.1917 1
      vertex 153.5 73.3552 1
    endloop
  endfacet
  facet normal 0 0 1
    outer loop
      vertex 190.5 100.192 1
      vertex 205 157 1
      vertex 190.5 130.808 1
    endloop
  endfacet
  facet normal 0 0 1
    outer loop
      vertex 205 157 1
      vertex 153.5 153.355 1
      vertex 190.5 130.808 1
    endloop
  endfacet
  facet normal 0 0 1
    outer loop
      vertex 110.5 133.808 1
      vertex 116.5 100.192 1
      vertex 116.5 130.808 1
    endloop
  endfacet
  facet normal 0 0 1
    outer loop
      vertex 153.5 73.3552 1
      vertex 110.5 93.1917 1
      vertex 116.5 50.8083 1
    endloop
  endfacet
  facet normal 0 0 1
    outer loop
      vertex 110.5 46.8083 1
      vertex 116.5 50.8083 1
      vertex 110.5 93.1917 1
    endloop
  endfacet
  facet normal -0 0 1
    outer loop
      vertex 110.5 34.1917 1
      vertex 116.5 30.1917 1
      vertex 110.5 46.8083 1
    endloop
  endfacet
  facet normal 0 0 1
    outer loop
      vertex 116.5 100.192 1
      vertex 110.5 133.808 1
      vertex 110.5 93.1917 1
    endloop
  endfacet
  facet normal 0 0 1
    outer loop
      vertex 153.5 153.355 1
      vertex 110.5 133.808 1
      vertex 116.5 130.808 1
    endloop
  endfacet
  facet normal 0 0 1
    outer loop
      vertex 153.5 153.355 1
      vertex 73.5 156.355 1
      vertex 110.5 133.808 1
    endloop
  endfacet
  facet normal 0 0 1
    outer loop
      vertex 205 157 1
      vertex 73.5 156.355 1
      vertex 153.5 153.355 1
    endloop
  endfacet
  facet normal 0 0 1
    outer loop
      vertex 2 157 1
      vertex 36.5 93.1917 1
      vertex 36.5 133.808 1
    endloop
  endfacet
  facet normal 0 0 1
    outer loop
      vertex 2 2 1
      vertex 36.5 93.1917 1
      vertex 2 157 1
    endloop
  endfacet
  facet normal 0 0 1
    outer loop
      vertex 36.5 93.1917 1
      vertex 2 2 1
      vertex 36.5 46.8083 1
    endloop
  endfacet
  facet normal 0 0 1
    outer loop
      vertex 36.5 34.1917 1
      vertex 33.3647 16.2658 1
      vertex 36.4321 16.9178 1
    endloop
  endfacet
  facet normal 0 0 1
    outer loop
      vertex 36.5 34.1917 1
      vertex 30.5 14.9904 1
      vertex 33.3647 16.2658 1
    endloop
  endfacet
  facet normal 0 -0 1
    outer loop
      vertex 27.963 13.1472 1
      vertex 36.5 34.1917 1
      vertex 2 2 1
    endloop
  endfacet
  facet normal 0 0 1
    outer loop
      vertex 36.5 34.1917 1
      vertex 27.963 13.1472 1
      vertex 30.5 14.9904 1
    endloop
  endfacet
  facet normal 0 0 1
    outer loop
      vertex 27.963 13.1472 1
      vertex 2 2 1
      vertex 25.8647 10.8168 1
    endloop
  endfacet
  facet normal 0 0 1
    outer loop
      vertex 25.8647 10.8168 1
      vertex 2 2 1
      vertex 24.2968 8.10104 1
    endloop
  endfacet
  facet normal 0 0 1
    outer loop
      vertex 24.2968 8.10104 1
      vertex 2 2 1
      vertex 23.3278 5.11867 1
    endloop
  endfacet
  facet normal -0 0 1
    outer loop
      vertex 2 157 1
      vertex 73.5 156.355 1
      vertex 205 157 1
    endloop
  endfacet
  facet normal 0 0 1
    outer loop
      vertex 2 157 1
      vertex 36.5 133.808 1
      vertex 73.5 156.355 1
    endloop
  endfacet
  facet normal 0 0 1
    outer loop
      vertex 36.5 46.8083 1
      vertex 2 2 1
      vertex 36.5 34.1917 1
    endloop
  endfacet
  facet normal 0 0 1
    outer loop
      vertex 23.3278 5.11867 1
      vertex 2 2 1
      vertex 23 2 1
    endloop
  endfacet
  facet normal 0 0 1
    outer loop
      vertex 205 157 1
      vertex 190.5 100.192 1
      vertex 205 2 1
    endloop
  endfacet
  facet normal -0 0 1
    outer loop
      vertex 190.5 50.8083 1
      vertex 205 2 1
      vertex 190.5 100.192 1
    endloop
  endfacet
  facet normal -0 0 1
    outer loop
      vertex 190.5 30.1917 1
      vertex 205 2 1
      vertex 190.5 50.8083 1
    endloop
  endfacet
  facet normal -0 0 1
    outer loop
      vertex 153.5 7.64479 1
      vertex 205 2 1
      vertex 190.5 30.1917 1
    endloop
  endfacet
  facet normal 0 0 1
    outer loop
      vertex 153.5 7.64479 1
      vertex 125 2 1
      vertex 205 2 1
    endloop
  endfacet
  facet normal 0 0 1
    outer loop
      vertex 153.5 7.64479 1
      vertex 124.672 5.11867 1
      vertex 125 2 1
    endloop
  endfacet
  facet normal 0 0 1
    outer loop
      vertex 153.5 7.64479 1
      vertex 123.703 8.10104 1
      vertex 124.672 5.11867 1
    endloop
  endfacet
  facet normal 0 0 1
    outer loop
      vertex 153.5 7.64479 1
      vertex 122.135 10.8168 1
      vertex 123.703 8.10104 1
    endloop
  endfacet
  facet normal 0 0 1
    outer loop
      vertex 116.5 30.1917 1
      vertex 122.135 10.8168 1
      vertex 153.5 7.64479 1
    endloop
  endfacet
  facet normal 0 0 1
    outer loop
      vertex 122.135 10.8168 1
      vertex 116.5 30.1917 1
      vertex 120.037 13.1472 1
    endloop
  endfacet
  facet normal 0 0 1
    outer loop
      vertex 120.037 13.1472 1
      vertex 116.5 30.1917 1
      vertex 117.5 14.9904 1
    endloop
  endfacet
  facet normal 0 0 1
    outer loop
      vertex 117.5 14.9904 1
      vertex 116.5 30.1917 1
      vertex 114.635 16.2658 1
    endloop
  endfacet
  facet normal 0 0 1
    outer loop
      vertex 116.5 50.8083 1
      vertex 110.5 46.8083 1
      vertex 116.5 30.1917 1
    endloop
  endfacet
  facet normal 0 0 1
    outer loop
      vertex 108.432 16.9178 1
      vertex 116.5 30.1917 1
      vertex 110.5 34.1917 1
    endloop
  endfacet
  facet normal 0 0 1
    outer loop
      vertex 116.5 30.1917 1
      vertex 111.568 16.9178 1
      vertex 114.635 16.2658 1
    endloop
  endfacet
  facet normal 0 0 1
    outer loop
      vertex 116.5 30.1917 1
      vertex 108.432 16.9178 1
      vertex 111.568 16.9178 1
    endloop
  endfacet
  facet normal 0 0 1
    outer loop
      vertex 110.5 34.1917 1
      vertex 105.365 16.2658 1
      vertex 108.432 16.9178 1
    endloop
  endfacet
  facet normal 0 0 1
    outer loop
      vertex 110.5 34.1917 1
      vertex 102.5 14.9904 1
      vertex 105.365 16.2658 1
    endloop
  endfacet
  facet normal 0 0 1
    outer loop
      vertex 110.5 34.1917 1
      vertex 99.963 13.1472 1
      vertex 102.5 14.9904 1
    endloop
  endfacet
  facet normal 0 0 1
    outer loop
      vertex 73.5 11.6448 1
      vertex 99.963 13.1472 1
      vertex 110.5 34.1917 1
    endloop
  endfacet
  facet normal 0 0 1
    outer loop
      vertex 99.963 13.1472 1
      vertex 73.5 11.6448 1
      vertex 97.8647 10.8168 1
    endloop
  endfacet
  facet normal 0 0 1
    outer loop
      vertex 97.8647 10.8168 1
      vertex 73.5 11.6448 1
      vertex 96.2968 8.10104 1
    endloop
  endfacet
  facet normal 0 0 1
    outer loop
      vertex 73.5 11.6448 1
      vertex 95.3278 5.11867 1
      vertex 96.2968 8.10104 1
    endloop
  endfacet
  facet normal 0 0 1
    outer loop
      vertex 73.5 11.6448 1
      vertex 95 2 1
      vertex 95.3278 5.11867 1
    endloop
  endfacet
  facet normal 0 0 1
    outer loop
      vertex 73.5 11.6448 1
      vertex 53 2 1
      vertex 95 2 1
    endloop
  endfacet
  facet normal 0 0 1
    outer loop
      vertex 73.5 11.6448 1
      vertex 52.6722 5.11867 1
      vertex 53 2 1
    endloop
  endfacet
  facet normal 0 0 1
    outer loop
      vertex 73.5 11.6448 1
      vertex 51.7032 8.10104 1
      vertex 52.6722 5.11867 1
    endloop
  endfacet
  facet normal 0 0 1
    outer loop
      vertex 73.5 11.6448 1
      vertex 50.1353 10.8168 1
      vertex 51.7032 8.10104 1
    endloop
  endfacet
  facet normal 0 0 1
    outer loop
      vertex 73.5 11.6448 1
      vertex 48.037 13.1472 1
      vertex 50.1353 10.8168 1
    endloop
  endfacet
  facet normal 0 0 1
    outer loop
      vertex 36.5 34.1917 1
      vertex 48.037 13.1472 1
      vertex 73.5 11.6448 1
    endloop
  endfacet
  facet normal 0 0 1
    outer loop
      vertex 48.037 13.1472 1
      vertex 36.5 34.1917 1
      vertex 45.5 14.9904 1
    endloop
  endfacet
  facet normal 0 0 1
    outer loop
      vertex 45.5 14.9904 1
      vertex 36.5 34.1917 1
      vertex 42.6353 16.2658 1
    endloop
  endfacet
  facet normal 0 0 1
    outer loop
      vertex 42.6353 16.2658 1
      vertex 36.5 34.1917 1
      vertex 39.5679 16.9178 1
    endloop
  endfacet
  facet normal 0 0 1
    outer loop
      vertex 39.5679 16.9178 1
      vertex 36.5 34.1917 1
      vertex 36.4321 16.9178 1
    endloop
  endfacet
  facet normal 0 -1 0
    outer loop
      vertex 2 157 1
      vertex 205 157 40
      vertex 2 157 40
    endloop
  endfacet
  facet normal 0 -1 -0
    outer loop
      vertex 205 157 40
      vertex 2 157 1
      vertex 205 157 1
    endloop
  endfacet
  facet normal 1 -0 0
    outer loop
      vertex 2 2 40
      vertex 2 157 1
      vertex 2 157 40
    endloop
  endfacet
  facet normal 1 0 0
    outer loop
      vertex 2 157 1
      vertex 2 2 40
      vertex 2 2 1
    endloop
  endfacet
  facet normal 0 1 -0
    outer loop
      vertex 23 2 1
      vertex 2 2 40
      vertex 23 2 40
    endloop
  endfacet
  facet normal 0 1 0
    outer loop
      vertex 2 2 40
      vertex 23 2 1
      vertex 2 2 1
    endloop
  endfacet
  facet normal -0.994521 0.104533 0
    outer loop
      vertex 23 2 1
      vertex 23.3278 5.11867 40
      vertex 23.3278 5.11867 1
    endloop
  endfacet
  facet normal -0.994521 0.104533 0
    outer loop
      vertex 23.3278 5.11867 40
      vertex 23 2 1
      vertex 23 2 40
    endloop
  endfacet
  facet normal -0.951059 0.309008 0
    outer loop
      vertex 23.3278 5.11867 1
      vertex 24.2968 8.10104 40
      vertex 24.2968 8.10104 1
    endloop
  endfacet
  facet normal -0.951059 0.309008 0
    outer loop
      vertex 24.2968 8.10104 40
      vertex 23.3278 5.11867 1
      vertex 23.3278 5.11867 40
    endloop
  endfacet
  facet normal -0.866032 0.499989 0
    outer loop
      vertex 24.2968 8.10104 1
      vertex 25.8647 10.8168 40
      vertex 25.8647 10.8168 1
    endloop
  endfacet
  facet normal -0.866032 0.499989 0
    outer loop
      vertex 25.8647 10.8168 40
      vertex 24.2968 8.10104 1
      vertex 24.2968 8.10104 40
    endloop
  endfacet
  facet normal -0.743145 0.66913 0
    outer loop
      vertex 25.8647 10.8168 1
      vertex 27.963 13.1472 40
      vertex 27.963 13.1472 1
    endloop
  endfacet
  facet normal -0.743145 0.66913 0
    outer loop
      vertex 27.963 13.1472 40
      vertex 25.8647 10.8168 1
      vertex 25.8647 10.8168 40
    endloop
  endfacet
  facet normal -0.587777 0.809023 0
    outer loop
      vertex 30.5 14.9904 1
      vertex 27.963 13.1472 40
      vertex 30.5 14.9904 40
    endloop
  endfacet
  facet normal -0.587777 0.809023 0
    outer loop
      vertex 27.963 13.1472 40
      vertex 30.5 14.9904 1
      vertex 27.963 13.1472 1
    endloop
  endfacet
  facet normal -0.406724 0.913551 0
    outer loop
      vertex 33.3647 16.2658 1
      vertex 30.5 14.9904 40
      vertex 33.3647 16.2658 40
    endloop
  endfacet
  facet normal -0.406724 0.913551 0
    outer loop
      vertex 30.5 14.9904 40
      vertex 33.3647 16.2658 1
      vertex 30.5 14.9904 1
    endloop
  endfacet
  facet normal -0.207913 0.978147 0
    outer loop
      vertex 36.4321 16.9178 1
      vertex 33.3647 16.2658 40
      vertex 36.4321 16.9178 40
    endloop
  endfacet
  facet normal -0.207913 0.978147 0
    outer loop
      vertex 33.3647 16.2658 40
      vertex 36.4321 16.9178 1
      vertex 33.3647 16.2658 1
    endloop
  endfacet
  facet normal 0 1 -0
    outer loop
      vertex 39.5679 16.9178 1
      vertex 36.4321 16.9178 40
      vertex 39.5679 16.9178 40
    endloop
  endfacet
  facet normal 0 1 0
    outer loop
      vertex 36.4321 16.9178 40
      vertex 39.5679 16.9178 1
      vertex 36.4321 16.9178 1
    endloop
  endfacet
  facet normal 0.207913 0.978147 -0
    outer loop
      vertex 42.6353 16.2658 1
      vertex 39.5679 16.9178 40
      vertex 42.6353 16.2658 40
    endloop
  endfacet
  facet normal 0.207913 0.978147 0
    outer loop
      vertex 39.5679 16.9178 40
      vertex 42.6353 16.2658 1
      vertex 39.5679 16.9178 1
    endloop
  endfacet
  facet normal 0.406724 0.913551 -0
    outer loop
      vertex 45.5 14.9904 1
      vertex 42.6353 16.2658 40
      vertex 45.5 14.9904 40
    endloop
  endfacet
  facet normal 0.406724 0.913551 0
    outer loop
      vertex 42.6353 16.2658 40
      vertex 45.5 14.9904 1
      vertex 42.6353 16.2658 1
    endloop
  endfacet
  facet normal 0.587777 0.809023 -0
    outer loop
      vertex 48.037 13.1472 1
      vertex 45.5 14.9904 40
      vertex 48.037 13.1472 40
    endloop
  endfacet
  facet normal 0.587777 0.809023 0
    outer loop
      vertex 45.5 14.9904 40
      vertex 48.037 13.1472 1
      vertex 45.5 14.9904 1
    endloop
  endfacet
  facet normal 0.743145 0.66913 0
    outer loop
      vertex 50.1353 10.8168 40
      vertex 48.037 13.1472 1
      vertex 48.037 13.1472 40
    endloop
  endfacet
  facet normal 0.743145 0.66913 0
    outer loop
      vertex 48.037 13.1472 1
      vertex 50.1353 10.8168 40
      vertex 50.1353 10.8168 1
    endloop
  endfacet
  facet normal 0.866032 0.499989 0
    outer loop
      vertex 51.7032 8.10104 40
      vertex 50.1353 10.8168 1
      vertex 50.1353 10.8168 40
    endloop
  endfacet
  facet normal 0.866032 0.499989 0
    outer loop
      vertex 50.1353 10.8168 1
      vertex 51.7032 8.10104 40
      vertex 51.7032 8.10104 1
    endloop
  endfacet
  facet normal 0.951059 0.309008 0
    outer loop
      vertex 52.6722 5.11867 40
      vertex 51.7032 8.10104 1
      vertex 51.7032 8.10104 40
    endloop
  endfacet
  facet normal 0.951059 0.309008 0
    outer loop
      vertex 51.7032 8.10104 1
      vertex 52.6722 5.11867 40
      vertex 52.6722 5.11867 1
    endloop
  endfacet
  facet normal 0.994521 0.104533 0
    outer loop
      vertex 53 2 40
      vertex 52.6722 5.11867 1
      vertex 52.6722 5.11867 40
    endloop
  endfacet
  facet normal 0.994521 0.104533 0
    outer loop
      vertex 52.6722 5.11867 1
      vertex 53 2 40
      vertex 53 2 1
    endloop
  endfacet
  facet normal 0 1 -0
    outer loop
      vertex 95 2 1
      vertex 53 2 40
      vertex 95 2 40
    endloop
  endfacet
  facet normal 0 1 0
    outer loop
      vertex 53 2 40
      vertex 95 2 1
      vertex 53 2 1
    endloop
  endfacet
  facet normal -0.994521 0.104533 0
    outer loop
      vertex 95 2 1
      vertex 95.3278 5.11867 40
      vertex 95.3278 5.11867 1
    endloop
  endfacet
  facet normal -0.994521 0.104533 0
    outer loop
      vertex 95.3278 5.11867 40
      vertex 95 2 1
      vertex 95 2 40
    endloop
  endfacet
  facet normal -0.951059 0.309008 0
    outer loop
      vertex 95.3278 5.11867 1
      vertex 96.2968 8.10104 40
      vertex 96.2968 8.10104 1
    endloop
  endfacet
  facet normal -0.951059 0.309008 0
    outer loop
      vertex 96.2968 8.10104 40
      vertex 95.3278 5.11867 1
      vertex 95.3278 5.11867 40
    endloop
  endfacet
  facet normal -0.866032 0.499989 0
    outer loop
      vertex 96.2968 8.10104 1
      vertex 97.8647 10.8168 40
      vertex 97.8647 10.8168 1
    endloop
  endfacet
  facet normal -0.866032 0.499989 0
    outer loop
      vertex 97.8647 10.8168 40
      vertex 96.2968 8.10104 1
      vertex 96.2968 8.10104 40
    endloop
  endfacet
  facet normal -0.743145 0.66913 0
    outer loop
      vertex 97.8647 10.8168 1
      vertex 99.963 13.1472 40
      vertex 99.963 13.1472 1
    endloop
  endfacet
  facet normal -0.743145 0.66913 0
    outer loop
      vertex 99.963 13.1472 40
      vertex 97.8647 10.8168 1
      vertex 97.8647 10.8168 40
    endloop
  endfacet
  facet normal -0.587777 0.809023 0
    outer loop
      vertex 102.5 14.9904 1
      vertex 99.963 13.1472 40
      vertex 102.5 14.9904 40
    endloop
  endfacet
  facet normal -0.587777 0.809023 0
    outer loop
      vertex 99.963 13.1472 40
      vertex 102.5 14.9904 1
      vertex 99.963 13.1472 1
    endloop
  endfacet
  facet normal -0.406689 0.913567 0
    outer loop
      vertex 105.365 16.2658 1
      vertex 102.5 14.9904 40
      vertex 105.365 16.2658 40
    endloop
  endfacet
  facet normal -0.406689 0.913567 0
    outer loop
      vertex 102.5 14.9904 40
      vertex 105.365 16.2658 1
      vertex 102.5 14.9904 1
    endloop
  endfacet
  facet normal -0.207939 0.978142 0
    outer loop
      vertex 108.432 16.9178 1
      vertex 105.365 16.2658 40
      vertex 108.432 16.9178 40
    endloop
  endfacet
  facet normal -0.207939 0.978142 0
    outer loop
      vertex 105.365 16.2658 40
      vertex 108.432 16.9178 1
      vertex 105.365 16.2658 1
    endloop
  endfacet
  facet normal 0 1 -0
    outer loop
      vertex 111.568 16.9178 1
      vertex 108.432 16.9178 40
      vertex 111.568 16.9178 40
    endloop
  endfacet
  facet normal 0 1 0
    outer loop
      vertex 108.432 16.9178 40
      vertex 111.568 16.9178 1
      vertex 108.432 16.9178 1
    endloop
  endfacet
  facet normal 0.207939 0.978142 -0
    outer loop
      vertex 114.635 16.2658 1
      vertex 111.568 16.9178 40
      vertex 114.635 16.2658 40
    endloop
  endfacet
  facet normal 0.207939 0.978142 0
    outer loop
      vertex 111.568 16.9178 40
      vertex 114.635 16.2658 1
      vertex 111.568 16.9178 1
    endloop
  endfacet
  facet normal 0.406689 0.913567 -0
    outer loop
      vertex 117.5 14.9904 1
      vertex 114.635 16.2658 40
      vertex 117.5 14.9904 40
    endloop
  endfacet
  facet normal 0.406689 0.913567 0
    outer loop
      vertex 114.635 16.2658 40
      vertex 117.5 14.9904 1
      vertex 114.635 16.2658 1
    endloop
  endfacet
  facet normal 0.587777 0.809023 -0
    outer loop
      vertex 120.037 13.1472 1
      vertex 117.5 14.9904 40
      vertex 120.037 13.1472 40
    endloop
  endfacet
  facet normal 0.587777 0.809023 0
    outer loop
      vertex 117.5 14.9904 40
      vertex 120.037 13.1472 1
      vertex 117.5 14.9904 1
    endloop
  endfacet
  facet normal 0.743193 0.669077 0
    outer loop
      vertex 122.135 10.8168 40
      vertex 120.037 13.1472 1
      vertex 120.037 13.1472 40
    endloop
  endfacet
  facet normal 0.743193 0.669077 0
    outer loop
      vertex 120.037 13.1472 1
      vertex 122.135 10.8168 40
      vertex 122.135 10.8168 1
    endloop
  endfacet
  facet normal 0.866018 0.500013 0
    outer loop
      vertex 123.703 8.10104 40
      vertex 122.135 10.8168 1
      vertex 122.135 10.8168 40
    endloop
  endfacet
  facet normal 0.866018 0.500013 0
    outer loop
      vertex 122.135 10.8168 1
      vertex 123.703 8.10104 40
      vertex 123.703 8.10104 1
    endloop
  endfacet
  facet normal 0.951059 0.309008 0
    outer loop
      vertex 124.672 5.11867 40
      vertex 123.703 8.10104 1
      vertex 123.703 8.10104 40
    endloop
  endfacet
  facet normal 0.951059 0.309008 0
    outer loop
      vertex 123.703 8.10104 1
      vertex 124.672 5.11867 40
      vertex 124.672 5.11867 1
    endloop
  endfacet
  facet normal 0.994515 0.104596 0
    outer loop
      vertex 125 2 40
      vertex 124.672 5.11867 1
      vertex 124.672 5.11867 40
    endloop
  endfacet
  facet normal 0.994515 0.104596 0
    outer loop
      vertex 124.672 5.11867 1
      vertex 125 2 40
      vertex 125 2 1
    endloop
  endfacet
  facet normal 0 1 -0
    outer loop
      vertex 205 2 1
      vertex 125 2 40
      vertex 205 2 40
    endloop
  endfacet
  facet normal 0 1 0
    outer loop
      vertex 125 2 40
      vertex 205 2 1
      vertex 125 2 1
    endloop
  endfacet
  facet normal -1 0 0
    outer loop
      vertex 205 2 1
      vertex 205 157 40
      vertex 205 157 1
    endloop
  endfacet
  facet normal -1 -0 0
    outer loop
      vertex 205 157 40
      vertex 205 2 1
      vertex 205 2 40
    endloop
  endfacet
  facet normal -1 0 0
    outer loop
      vertex 36.5 93.1917 1
      vertex 36.5 133.808 40
      vertex 36.5 133.808 1
    endloop
  endfacet
  facet normal -1 -0 0
    outer loop
      vertex 36.5 133.808 40
      vertex 36.5 93.1917 1
      vertex 36.5 93.1917 40
    endloop
  endfacet
  facet normal -0.520372 0.85394 0
    outer loop
      vertex 73.5 156.355 1
      vertex 36.5 133.808 40
      vertex 73.5 156.355 40
    endloop
  endfacet
  facet normal -0.520372 0.85394 0
    outer loop
      vertex 36.5 133.808 40
      vertex 73.5 156.355 1
      vertex 36.5 133.808 1
    endloop
  endfacet
  facet normal 0.520372 0.85394 -0
    outer loop
      vertex 110.5 133.808 1
      vertex 73.5 156.355 40
      vertex 110.5 133.808 40
    endloop
  endfacet
  facet normal 0.520372 0.85394 0
    outer loop
      vertex 73.5 156.355 40
      vertex 110.5 133.808 1
      vertex 73.5 156.355 1
    endloop
  endfacet
  facet normal 1 -0 0
    outer loop
      vertex 110.5 93.1917 40
      vertex 110.5 133.808 1
      vertex 110.5 133.808 40
    endloop
  endfacet
  facet normal 1 0 0
    outer loop
      vertex 110.5 133.808 1
      vertex 110.5 93.1917 40
      vertex 110.5 93.1917 1
    endloop
  endfacet
  facet normal 0.520371 -0.853941 0
    outer loop
      vertex 73.5 70.6448 1
      vertex 110.5 93.1917 40
      vertex 73.5 70.6448 40
    endloop
  endfacet
  facet normal 0.520371 -0.853941 0
    outer loop
      vertex 110.5 93.1917 40
      vertex 73.5 70.6448 1
      vertex 110.5 93.1917 1
    endloop
  endfacet
  facet normal -0.520371 -0.853941 0
    outer loop
      vertex 36.5 93.1917 1
      vertex 73.5 70.6448 40
      vertex 36.5 93.1917 40
    endloop
  endfacet
  facet normal -0.520371 -0.853941 -0
    outer loop
      vertex 73.5 70.6448 40
      vertex 36.5 93.1917 1
      vertex 73.5 70.6448 1
    endloop
  endfacet
  facet normal -1 0 0
    outer loop
      vertex 116.5 100.192 1
      vertex 116.5 130.808 40
      vertex 116.5 130.808 1
    endloop
  endfacet
  facet normal -1 -0 0
    outer loop
      vertex 116.5 130.808 40
      vertex 116.5 100.192 1
      vertex 116.5 100.192 40
    endloop
  endfacet
  facet normal -0.520372 0.85394 0
    outer loop
      vertex 153.5 153.355 1
      vertex 116.5 130.808 40
      vertex 153.5 153.355 40
    endloop
  endfacet
  facet normal -0.520372 0.85394 0
    outer loop
      vertex 116.5 130.808 40
      vertex 153.5 153.355 1
      vertex 116.5 130.808 1
    endloop
  endfacet
  facet normal 0.520372 0.85394 -0
    outer loop
      vertex 190.5 130.808 1
      vertex 153.5 153.355 40
      vertex 190.5 130.808 40
    endloop
  endfacet
  facet normal 0.520372 0.85394 0
    outer loop
      vertex 153.5 153.355 40
      vertex 190.5 130.808 1
      vertex 153.5 153.355 1
    endloop
  endfacet
  facet normal 1 -0 0
    outer loop
      vertex 190.5 100.192 40
      vertex 190.5 130.808 1
      vertex 190.5 130.808 40
    endloop
  endfacet
  facet normal 1 0 0
    outer loop
      vertex 190.5 130.808 1
      vertex 190.5 100.192 40
      vertex 190.5 100.192 1
    endloop
  endfacet
  facet normal 0.520376 -0.853937 0
    outer loop
      vertex 153.5 77.6448 1
      vertex 190.5 100.192 40
      vertex 153.5 77.6448 40
    endloop
  endfacet
  facet normal 0.520376 -0.853937 0
    outer loop
      vertex 190.5 100.192 40
      vertex 153.5 77.6448 1
      vertex 190.5 100.192 1
    endloop
  endfacet
  facet normal -0.520376 -0.853937 0
    outer loop
      vertex 116.5 100.192 1
      vertex 153.5 77.6448 40
      vertex 116.5 100.192 40
    endloop
  endfacet
  facet normal -0.520376 -0.853937 -0
    outer loop
      vertex 153.5 77.6448 40
      vertex 116.5 100.192 1
      vertex 153.5 77.6448 1
    endloop
  endfacet
  facet normal -1 0 0
    outer loop
      vertex 116.5 30.1917 1
      vertex 116.5 50.8083 40
      vertex 116.5 50.8083 1
    endloop
  endfacet
  facet normal -1 -0 0
    outer loop
      vertex 116.5 50.8083 40
      vertex 116.5 30.1917 1
      vertex 116.5 30.1917 40
    endloop
  endfacet
  facet normal -0.520371 0.853941 0
    outer loop
      vertex 153.5 73.3552 1
      vertex 116.5 50.8083 40
      vertex 153.5 73.3552 40
    endloop
  endfacet
  facet normal -0.520371 0.853941 0
    outer loop
      vertex 116.5 50.8083 40
      vertex 153.5 73.3552 1
      vertex 116.5 50.8083 1
    endloop
  endfacet
  facet normal 0.520371 0.853941 -0
    outer loop
      vertex 190.5 50.8083 1
      vertex 153.5 73.3552 40
      vertex 190.5 50.8083 40
    endloop
  endfacet
  facet normal 0.520371 0.853941 0
    outer loop
      vertex 153.5 73.3552 40
      vertex 190.5 50.8083 1
      vertex 153.5 73.3552 1
    endloop
  endfacet
  facet normal 1 -0 0
    outer loop
      vertex 190.5 30.1917 40
      vertex 190.5 50.8083 1
      vertex 190.5 50.8083 40
    endloop
  endfacet
  facet normal 1 0 0
    outer loop
      vertex 190.5 50.8083 1
      vertex 190.5 30.1917 40
      vertex 190.5 30.1917 1
    endloop
  endfacet
  facet normal 0.520371 -0.85394 0
    outer loop
      vertex 153.5 7.64479 1
      vertex 190.5 30.1917 40
      vertex 153.5 7.64479 40
    endloop
  endfacet
  facet normal 0.520371 -0.85394 0
    outer loop
      vertex 190.5 30.1917 40
      vertex 153.5 7.64479 1
      vertex 190.5 30.1917 1
    endloop
  endfacet
  facet normal -0.520371 -0.85394 0
    outer loop
      vertex 116.5 30.1917 1
      vertex 153.5 7.64479 40
      vertex 116.5 30.1917 40
    endloop
  endfacet
  facet normal -0.520371 -0.85394 -0
    outer loop
      vertex 153.5 7.64479 40
      vertex 116.5 30.1917 1
      vertex 153.5 7.64479 1
    endloop
  endfacet
  facet normal -1 0 0
    outer loop
      vertex 36.5 34.1917 1
      vertex 36.5 46.8083 40
      vertex 36.5 46.8083 1
    endloop
  endfacet
  facet normal -1 -0 0
    outer loop
      vertex 36.5 46.8083 40
      vertex 36.5 34.1917 1
      vertex 36.5 34.1917 40
    endloop
  endfacet
  facet normal -0.520371 0.853941 0
    outer loop
      vertex 73.5 69.3552 1
      vertex 36.5 46.8083 40
      vertex 73.5 69.3552 40
    endloop
  endfacet
  facet normal -0.520371 0.853941 0
    outer loop
      vertex 36.5 46.8083 40
      vertex 73.5 69.3552 1
      vertex 36.5 46.8083 1
    endloop
  endfacet
  facet normal 0.520371 0.853941 -0
    outer loop
      vertex 110.5 46.8083 1
      vertex 73.5 69.3552 40
      vertex 110.5 46.8083 40
    endloop
  endfacet
  facet normal 0.520371 0.853941 0
    outer loop
      vertex 73.5 69.3552 40
      vertex 110.5 46.8083 1
      vertex 73.5 69.3552 1
    endloop
  endfacet
  facet normal 1 -0 0
    outer loop
      vertex 110.5 34.1917 40
      vertex 110.5 46.8083 1
      vertex 110.5 46.8083 40
    endloop
  endfacet
  facet normal 1 0 0
    outer loop
      vertex 110.5 46.8083 1
      vertex 110.5 34.1917 40
      vertex 110.5 34.1917 1
    endloop
  endfacet
  facet normal 0.520371 -0.853941 0
    outer loop
      vertex 73.5 11.6448 1
      vertex 110.5 34.1917 40
      vertex 73.5 11.6448 40
    endloop
  endfacet
  facet normal 0.520371 -0.853941 0
    outer loop
      vertex 110.5 34.1917 40
      vertex 73.5 11.6448 1
      vertex 110.5 34.1917 1
    endloop
  endfacet
  facet normal -0.520371 -0.853941 0
    outer loop
      vertex 36.5 34.1917 1
      vertex 73.5 11.6448 40
      vertex 36.5 34.1917 40
    endloop
  endfacet
  facet normal -0.520371 -0.853941 -0
    outer loop
      vertex 73.5 11.6448 40
      vertex 36.5 34.1917 1
      vertex 73.5 11.6448 1
    endloop
  endfacet
endsolid OpenSCAD_Model
