solid OpenSCAD_Model
  facet normal 0.52037 0.853941 0
    outer loop
      vertex 68 49.6233 43
      vertex 44 64.2483 1
      vertex 44 64.2483 43
    endloop
  endfacet
  facet normal 0.52037 0.853941 -0
    outer loop
      vertex 68 49.6233 0
      vertex 44 64.2483 1
      vertex 68 49.6233 43
    endloop
  endfacet
  facet normal 0.520371 0.85394 3.01391e-05
    outer loop
      vertex 34 70.3421 0
      vertex 44 64.2483 1
      vertex 68 49.6233 0
    endloop
  endfacet
  facet normal 0.520373 0.853939 0
    outer loop
      vertex 44 64.2483 1
      vertex 34 70.3421 0
      vertex 34 70.3421 1
    endloop
  endfacet
  facet normal 0 0 1
    outer loop
      vertex 0 49.6233 43
      vertex 24 61.9062 43
      vertex 24 64.2483 43
    endloop
  endfacet
  facet normal 0 0 1
    outer loop
      vertex 2 48.5 43
      vertex 0 49.6233 43
      vertex 2 21.5 43
    endloop
  endfacet
  facet normal 0 0 1
    outer loop
      vertex 24 61.9062 43
      vertex 0 49.6233 43
      vertex 2 48.5 43
    endloop
  endfacet
  facet normal -0 0 1
    outer loop
      vertex 0 20.3767 43
      vertex 24 8.09375 43
      vertex 2 21.5 43
    endloop
  endfacet
  facet normal 0 0 1
    outer loop
      vertex 24 8.09375 43
      vertex 0 20.3767 43
      vertex 24 5.75166 43
    endloop
  endfacet
  facet normal 0 0 1
    outer loop
      vertex 0 20.3767 43
      vertex 2 21.5 43
      vertex 0 49.6233 43
    endloop
  endfacet
  facet normal 0 0 1
    outer loop
      vertex 68 49.6233 43
      vertex 66 48.5 43
      vertex 68 20.3767 43
    endloop
  endfacet
  facet normal -0 0 1
    outer loop
      vertex 44 61.9062 43
      vertex 68 49.6233 43
      vertex 44 64.2483 43
    endloop
  endfacet
  facet normal 0 0 1
    outer loop
      vertex 68 49.6233 43
      vertex 44 61.9062 43
      vertex 66 48.5 43
    endloop
  endfacet
  facet normal -0 0 1
    outer loop
      vertex 66 21.5 43
      vertex 68 20.3767 43
      vertex 66 48.5 43
    endloop
  endfacet
  facet normal 0 0 1
    outer loop
      vertex 44 8.09375 43
      vertex 68 20.3767 43
      vertex 66 21.5 43
    endloop
  endfacet
  facet normal 0 0 1
    outer loop
      vertex 68 20.3767 43
      vertex 44 8.09375 43
      vertex 44 5.75166 43
    endloop
  endfacet
  facet normal 1 -0 0
    outer loop
      vertex 68 20.3767 43
      vertex 68 49.6233 0
      vertex 68 49.6233 43
    endloop
  endfacet
  facet normal 1 0 0
    outer loop
      vertex 68 49.6233 0
      vertex 68 20.3767 43
      vertex 68 20.3767 0
    endloop
  endfacet
  facet normal -1 0 0
    outer loop
      vertex 0 20.3767 0
      vertex 0 49.6233 43
      vertex 0 49.6233 0
    endloop
  endfacet
  facet normal -1 -0 0
    outer loop
      vertex 0 49.6233 43
      vertex 0 20.3767 0
      vertex 0 20.3767 43
    endloop
  endfacet
  facet normal -0.520371 -0.85394 0
    outer loop
      vertex 0 20.3767 43
      vertex 24 5.75166 1
      vertex 24 5.75166 43
    endloop
  endfacet
  facet normal -0.520371 -0.85394 0
    outer loop
      vertex 0 20.3767 0
      vertex 24 5.75166 1
      vertex 0 20.3767 43
    endloop
  endfacet
  facet normal -0.520371 -0.85394 -1.18547e-05
    outer loop
      vertex 34 -0.342087 0
      vertex 24 5.75166 1
      vertex 0 20.3767 0
    endloop
  endfacet
  facet normal -0.52037 -0.853941 0
    outer loop
      vertex 24 5.75166 1
      vertex 34 -0.342087 0
      vertex 34 -0.342087 1
    endloop
  endfacet
  facet normal 0 0 -1
    outer loop
      vertex 34 -0.342087 0
      vertex 68 49.6233 0
      vertex 68 20.3767 0
    endloop
  endfacet
  facet normal 0 0 -1
    outer loop
      vertex 34 -0.342087 0
      vertex 34 70.3421 0
      vertex 68 49.6233 0
    endloop
  endfacet
  facet normal 0 0 -1
    outer loop
      vertex 0 20.3767 0
      vertex 34 70.3421 0
      vertex 34 -0.342087 0
    endloop
  endfacet
  facet normal 0 0 -1
    outer loop
      vertex 34 70.3421 0
      vertex 0 20.3767 0
      vertex 0 49.6233 0
    endloop
  endfacet
  facet normal 0.52037 -0.853941 0
    outer loop
      vertex 34 -0.342087 1
      vertex 34 -0.342087 0
      vertex 44 5.75166 1
    endloop
  endfacet
  facet normal 0.520371 -0.85394 0
    outer loop
      vertex 44 5.75166 1
      vertex 68 20.3767 43
      vertex 44 5.75166 43
    endloop
  endfacet
  facet normal 0.520371 -0.85394 0
    outer loop
      vertex 44 5.75166 1
      vertex 68 20.3767 0
      vertex 68 20.3767 43
    endloop
  endfacet
  facet normal 0.520371 -0.85394 -1.18547e-05
    outer loop
      vertex 68 20.3767 0
      vertex 44 5.75166 1
      vertex 34 -0.342087 0
    endloop
  endfacet
  facet normal -0.520373 0.853939 0
    outer loop
      vertex 34 70.3421 1
      vertex 34 70.3421 0
      vertex 24 64.2483 1
    endloop
  endfacet
  facet normal -0.52037 0.853941 0
    outer loop
      vertex 24 64.2483 1
      vertex 0 49.6233 43
      vertex 24 64.2483 43
    endloop
  endfacet
  facet normal -0.52037 0.853941 0
    outer loop
      vertex 24 64.2483 1
      vertex 0 49.6233 0
      vertex 0 49.6233 43
    endloop
  endfacet
  facet normal -0.520371 0.85394 3.01391e-05
    outer loop
      vertex 0 49.6233 0
      vertex 24 64.2483 1
      vertex 34 70.3421 0
    endloop
  endfacet
  facet normal -0.520369 -0.853942 0
    outer loop
      vertex 44 61.9062 1
      vertex 66 48.5 43
      vertex 44 61.9062 43
    endloop
  endfacet
  facet normal -0.520369 -0.853942 -0
    outer loop
      vertex 66 48.5 43
      vertex 44 61.9062 1
      vertex 66 48.5 1
    endloop
  endfacet
  facet normal -1 0 0
    outer loop
      vertex 66 21.5 1
      vertex 66 48.5 43
      vertex 66 48.5 1
    endloop
  endfacet
  facet normal -1 -0 0
    outer loop
      vertex 66 48.5 43
      vertex 66 21.5 1
      vertex 66 21.5 43
    endloop
  endfacet
  facet normal 1 -0 0
    outer loop
      vertex 2 21.5 43
      vertex 2 48.5 1
      vertex 2 48.5 43
    endloop
  endfacet
  facet normal 1 0 0
    outer loop
      vertex 2 48.5 1
      vertex 2 21.5 43
      vertex 2 21.5 1
    endloop
  endfacet
  facet normal 0.52037 0.853941 -0
    outer loop
      vertex 24 8.09375 1
      vertex 2 21.5 43
      vertex 24 8.09375 43
    endloop
  endfacet
  facet normal 0.52037 0.853941 0
    outer loop
      vertex 2 21.5 43
      vertex 24 8.09375 1
      vertex 2 21.5 1
    endloop
  endfacet
  facet normal -0 0 1
    outer loop
      vertex 2 48.5 1
      vertex 24 8.09375 1
      vertex 24 61.9062 1
    endloop
  endfacet
  facet normal 0 0 1
    outer loop
      vertex 24 8.09375 1
      vertex 2 48.5 1
      vertex 2 21.5 1
    endloop
  endfacet
  facet normal 0 0 1
    outer loop
      vertex 34 70.3421 1
      vertex 44 61.9062 1
      vertex 44 64.2483 1
    endloop
  endfacet
  facet normal 0 0 1
    outer loop
      vertex 44 61.9062 1
      vertex 24 61.9062 1
      vertex 44 8.09375 1
    endloop
  endfacet
  facet normal 0 0 1
    outer loop
      vertex 44 61.9062 1
      vertex 34 70.3421 1
      vertex 24 61.9062 1
    endloop
  endfacet
  facet normal 0 0 1
    outer loop
      vertex 24 8.09375 1
      vertex 44 8.09375 1
      vertex 24 61.9062 1
    endloop
  endfacet
  facet normal 0 0 1
    outer loop
      vertex 24 61.9062 1
      vertex 34 70.3421 1
      vertex 24 64.2483 1
    endloop
  endfacet
  facet normal 0 -0 1
    outer loop
      vertex 34 -0.342087 1
      vertex 44 8.09375 1
      vertex 24 8.09375 1
    endloop
  endfacet
  facet normal 0 0 1
    outer loop
      vertex 44 8.09375 1
      vertex 34 -0.342087 1
      vertex 44 5.75166 1
    endloop
  endfacet
  facet normal 0 0 1
    outer loop
      vertex 34 -0.342087 1
      vertex 24 8.09375 1
      vertex 24 5.75166 1
    endloop
  endfacet
  facet normal 0 0 1
    outer loop
      vertex 44 61.9062 1
      vertex 66 21.5 1
      vertex 66 48.5 1
    endloop
  endfacet
  facet normal 0 0 1
    outer loop
      vertex 66 21.5 1
      vertex 44 61.9062 1
      vertex 44 8.09375 1
    endloop
  endfacet
  facet normal -0.52037 0.853941 0
    outer loop
      vertex 66 21.5 1
      vertex 44 8.09375 43
      vertex 66 21.5 43
    endloop
  endfacet
  facet normal -0.52037 0.853941 0
    outer loop
      vertex 44 8.09375 43
      vertex 66 21.5 1
      vertex 44 8.09375 1
    endloop
  endfacet
  facet normal 0.520369 -0.853942 0
    outer loop
      vertex 2 48.5 1
      vertex 24 61.9062 43
      vertex 2 48.5 43
    endloop
  endfacet
  facet normal 0.520369 -0.853942 0
    outer loop
      vertex 24 61.9062 43
      vertex 2 48.5 1
      vertex 24 61.9062 1
    endloop
  endfacet
  facet normal 1 -0 0
    outer loop
      vertex 24 61.9062 43
      vertex 24 64.2483 1
      vertex 24 64.2483 43
    endloop
  endfacet
  facet normal 1 0 0
    outer loop
      vertex 24 64.2483 1
      vertex 24 61.9062 43
      vertex 24 61.9062 1
    endloop
  endfacet
  facet normal 1 -0 0
    outer loop
      vertex 24 5.75166 43
      vertex 24 8.09375 1
      vertex 24 8.09375 43
    endloop
  endfacet
  facet normal 1 0 0
    outer loop
      vertex 24 8.09375 1
      vertex 24 5.75166 43
      vertex 24 5.75166 1
    endloop
  endfacet
  facet normal -1 0 0
    outer loop
      vertex 44 61.9062 1
      vertex 44 64.2483 43
      vertex 44 64.2483 1
    endloop
  endfacet
  facet normal -1 -0 0
    outer loop
      vertex 44 64.2483 43
      vertex 44 61.9062 1
      vertex 44 61.9062 43
    endloop
  endfacet
  facet normal -1 0 0
    outer loop
      vertex 44 5.75166 1
      vertex 44 8.09375 43
      vertex 44 8.09375 1
    endloop
  endfacet
  facet normal -1 -0 0
    outer loop
      vertex 44 8.09375 43
      vertex 44 5.75166 1
      vertex 44 5.75166 43
    endloop
  endfacet
endsolid OpenSCAD_Model
